<svg width="536" height="368" viewBox="0 0 536 368" fill="none" xmlns="http://www.w3.org/2000/svg">
<g clip-path="url(#clip0_2019_247)">
<path d="M278.454 299.461L275.648 298.035C270.434 295.386 266.056 291.349 262.998 286.372C259.94 281.394 258.322 275.669 258.322 269.83V171.792H176.649V269.83C176.649 275.669 175.031 281.394 171.973 286.372C168.915 291.35 164.537 295.386 159.323 298.035L156.516 299.461C154.535 300.467 155.252 303.451 157.475 303.451H277.495C279.718 303.451 280.435 300.467 278.454 299.461Z" fill="#E5F2FE"/>
<path d="M277.494 303.871H157.474C156.093 303.871 155.241 302.897 155.008 301.931C154.776 300.964 155.093 299.71 156.325 299.085L159.131 297.66C169.677 292.302 176.227 281.638 176.227 269.829V171.792C176.227 171.68 176.272 171.573 176.351 171.494C176.43 171.415 176.537 171.371 176.649 171.371H258.321C258.433 171.371 258.54 171.415 258.619 171.494C258.698 171.573 258.743 171.68 258.743 171.792V269.83C258.743 281.639 265.293 292.303 275.838 297.661L278.644 299.086C279.876 299.711 280.192 300.965 279.96 301.931C279.728 302.896 278.876 303.871 277.494 303.871ZM177.07 172.212V269.83C177.07 281.957 170.343 292.908 159.513 298.409L156.706 299.835C155.829 300.281 155.685 301.137 155.828 301.735C155.972 302.332 156.489 303.03 157.474 303.03H277.494C278.479 303.03 278.997 302.332 279.141 301.735C279.284 301.137 279.14 300.281 278.263 299.835L275.456 298.409C264.626 292.908 257.9 281.956 257.9 269.83V172.212H177.07Z" fill="#1D2445"/>
<path d="M176.373 240.824H258.153V245.101H176.373V240.824Z" fill="#1D2445"/>
<path d="M423.978 0.420532H10.9931C5.15501 0.420532 0.421875 5.14406 0.421875 10.9703V230.407C0.421875 236.233 5.15501 240.956 10.9931 240.956H423.978C429.816 240.956 434.549 236.233 434.549 230.407V10.9703C434.549 5.14406 429.817 0.420532 423.978 0.420532Z" fill="#E5F2FE"/>
<path d="M423.977 241.378H10.9926C4.93204 241.378 0 236.456 0 230.408V10.9703C0 4.92119 4.93204 0 10.9926 0H423.977C430.039 0 434.971 4.92119 434.971 10.9703V230.407C434.971 236.456 430.039 241.378 423.977 241.378ZM10.9926 0.841084C5.39642 0.841084 0.842795 5.38462 0.842795 10.9703V230.407C0.842795 235.992 5.39557 240.536 10.9926 240.536H423.977C429.574 240.536 434.128 235.992 434.128 230.407V10.9703C434.128 5.38462 429.574 0.841084 423.977 0.841084H10.9926Z" fill="#1D2445"/>
<path d="M434.549 203.891H0.421875V230.408C0.421875 236.234 5.15501 240.957 10.9931 240.957H423.978C429.816 240.957 434.549 236.234 434.549 230.408V203.891Z" fill="#E5F2FE"/>
<path d="M423.977 241.378H10.9926C4.93204 241.378 0 236.457 0 230.408V203.891C0 203.78 0.0443971 203.673 0.123424 203.594C0.202452 203.515 0.309636 203.471 0.421397 203.471H434.548C434.66 203.471 434.767 203.515 434.846 203.594C434.925 203.673 434.97 203.78 434.97 203.891V230.408C434.971 236.457 430.039 241.378 423.977 241.378ZM0.842795 204.311V230.407C0.842795 235.992 5.39557 240.536 10.9926 240.536H423.977C429.574 240.536 434.128 235.992 434.128 230.407V204.311H0.842795Z" fill="#1D2445"/>
<path d="M15.3252 14.6988H419.645V189.792H15.3252V14.6988Z" fill="#E5F2FE"/>
<path d="M419.645 190.212H15.3257C15.2139 190.212 15.1067 190.168 15.0277 190.089C14.9487 190.01 14.9043 189.903 14.9043 189.792V14.6997C14.9043 14.5881 14.9487 14.4812 15.0277 14.4023C15.1067 14.3234 15.2139 14.2791 15.3257 14.2791H419.645C419.757 14.2791 419.864 14.3234 419.943 14.4023C420.022 14.4812 420.066 14.5881 420.066 14.6997V189.792C420.066 189.903 420.022 190.01 419.943 190.089C419.864 190.168 419.757 190.212 419.645 190.212ZM15.7471 189.371H419.223V15.1202H15.7471V189.371ZM221.603 231.286H213.368C211.043 231.286 209.14 229.386 209.14 227.066V218.848C209.14 216.527 211.043 214.628 213.368 214.628H221.603C223.928 214.628 225.831 216.527 225.831 218.848V227.066C225.831 229.386 223.928 231.286 221.603 231.286Z" fill="#1D2445"/>
<path d="M221.603 231.706H213.368C212.135 231.705 210.953 231.215 210.082 230.345C209.21 229.475 208.719 228.295 208.718 227.065V218.847C208.719 217.616 209.21 216.437 210.082 215.567C210.953 214.697 212.135 214.207 213.368 214.206H221.603C222.836 214.207 224.018 214.697 224.89 215.567C225.762 216.437 226.252 217.616 226.254 218.847V227.065C226.252 228.295 225.762 229.475 224.89 230.345C224.018 231.215 222.836 231.705 221.603 231.706ZM213.367 215.048C212.358 215.049 211.39 215.449 210.676 216.162C209.962 216.874 209.561 217.84 209.56 218.848V227.066C209.561 228.073 209.962 229.039 210.676 229.752C211.39 230.464 212.358 230.865 213.367 230.866H221.602C222.612 230.865 223.58 230.464 224.294 229.752C225.008 229.039 225.409 228.073 225.41 227.066V218.848C225.409 217.84 225.008 216.874 224.294 216.162C223.58 215.449 222.612 215.049 221.602 215.048H213.367Z" fill="#1D2445"/>
</g>
<g clip-path="url(#clip1_2019_247)">
<path d="M305.396 236.527L312.187 264.664L251.692 279.947L244.901 251.81L305.396 236.527Z" fill="white"/>
<path d="M251.692 280.376C251.615 280.376 251.539 280.359 251.471 280.316C251.374 280.257 251.304 280.161 251.275 280.05L244.484 251.913C244.433 251.681 244.569 251.449 244.791 251.398L305.286 236.115C305.396 236.089 305.515 236.106 305.609 236.166C305.703 236.226 305.779 236.321 305.805 236.432L312.595 264.57C312.646 264.802 312.51 265.033 312.289 265.085L251.794 280.368C251.794 280.368 251.726 280.385 251.692 280.385V280.376ZM245.42 252.119L252.007 279.424L311.676 264.347L305.09 237.042L245.42 252.119Z" fill="#1D2445"/>
<path d="M150.607 303.614L144.667 278.978C144.122 276.712 145.467 274.43 147.679 273.872L279.272 240.628L287.195 273.46L155.602 306.703C153.389 307.261 151.151 305.88 150.607 303.614Z" fill="#1D2445"/>
<path d="M154.606 307.253C153.797 307.253 152.997 307.03 152.283 306.592C151.227 305.948 150.487 304.927 150.198 303.709C149.908 302.49 144.258 279.081 144.258 279.081C143.654 276.592 145.151 274.069 147.585 273.451L279.178 240.208C279.289 240.182 279.408 240.199 279.501 240.259C279.595 240.32 279.672 240.414 279.697 240.526L287.62 273.357C287.671 273.589 287.534 273.82 287.313 273.872L155.703 307.115C155.337 307.21 154.972 307.253 154.606 307.253ZM151.023 303.511C151.261 304.507 151.866 305.339 152.725 305.863C153.567 306.377 154.555 306.523 155.499 306.283L286.683 273.143L278.965 241.143L147.789 274.284C145.807 274.782 144.598 276.841 145.083 278.875L151.023 303.511Z" fill="#1D2445"/>
<path d="M371.125 304.395C408.661 304.395 439.091 273.252 439.091 234.836C439.091 196.42 408.661 165.277 371.125 165.277C333.588 165.277 303.158 196.42 303.158 234.836C303.158 273.252 333.588 304.395 371.125 304.395Z" fill="white"/>
<path d="M370.997 308.651C358.02 308.651 345.247 305.039 333.852 297.994C317.369 287.808 305.754 271.658 301.133 252.522C296.521 233.386 299.457 213.563 309.413 196.693C319.369 179.822 335.146 167.929 353.842 163.209C392.433 153.461 431.585 177.66 441.108 217.159C450.63 256.658 426.99 296.724 388.391 306.472C382.697 307.912 376.85 308.644 370.98 308.651H370.997ZM371.125 169.491C366.07 169.491 360.947 170.108 355.824 171.404C339.265 175.583 325.292 186.121 316.476 201.061C307.66 216.001 305.056 233.558 309.14 250.505C313.225 267.453 323.513 281.749 338.116 290.777C352.71 299.804 369.865 302.464 386.425 298.285C420.599 289.653 441.55 254.17 433.109 219.193C425.935 189.45 399.793 169.508 371.125 169.508V169.491Z" fill="#1D2445"/>
<path d="M370.997 309.08C357.892 309.08 344.974 305.373 333.631 298.363C317.054 288.117 305.362 271.872 300.724 252.625C296.087 233.386 299.04 213.443 309.055 196.47C319.071 179.505 334.942 167.543 353.748 162.789C372.35 158.086 391.684 161.038 408.192 171.095C425.016 181.341 436.853 197.663 441.533 217.056C451.115 256.778 427.331 297.084 388.51 306.884C382.783 308.334 376.902 309.071 370.997 309.08ZM371.184 161.467C365.44 161.467 359.662 162.179 353.952 163.621C335.367 168.315 319.684 180.14 309.787 196.907C299.891 213.684 296.963 233.395 301.55 252.419C306.137 271.443 317.693 287.499 334.074 297.625C345.281 304.558 358.054 308.214 370.997 308.222C376.826 308.222 382.647 307.493 388.297 306.06C426.667 296.363 450.17 256.529 440.699 217.262C436.078 198.092 424.369 181.959 407.75 171.833C396.5 164.985 383.932 161.476 371.184 161.476V161.467ZM371.005 300.637C359.432 300.637 348.046 297.419 337.886 291.137C323.19 282.058 312.834 267.659 308.724 250.6C304.613 233.549 307.234 215.872 316.11 200.838C324.985 185.803 339.052 175.197 355.722 170.992C360.759 169.718 365.932 169.072 371.125 169.07C400.764 169.07 426.42 189.639 433.526 219.09C442.018 254.298 420.94 290.013 386.535 298.706C381.46 299.989 376.247 300.64 371.014 300.645L371.005 300.637ZM371.116 169.92C366.019 169.92 360.905 170.555 355.926 171.816C339.477 175.969 325.598 186.43 316.842 201.275C308.085 216.121 305.49 233.566 309.557 250.394C313.617 267.23 323.837 281.432 338.337 290.399C352.837 299.358 369.874 302.01 386.323 297.856C420.276 289.275 441.082 254.032 432.7 219.279C425.688 190.214 400.372 169.92 371.125 169.92H371.116Z" fill="#1D2445"/>
</g>
<g clip-path="url(#clip2_2019_247)">
<path d="M162.354 60.6828L177.89 45.1477L270.011 137.269L254.476 152.804L162.354 60.6828Z" fill="#1D2445"/>
<path d="M162.354 137.269L254.474 45.1466L270.01 60.6827L177.889 152.804L162.354 137.269Z" fill="#1D2445"/>
</g>
<g clip-path="url(#clip3_2019_247)">
<path d="M497.325 194.266L471.491 177.078L483.934 171.676L488.353 157.811C489.145 153.535 486.212 148.734 481.927 148.185L424.359 142.099C422.424 141.872 418.017 141.969 412.72 142.221C407.436 139.66 403.593 137.84 403.593 137.84L399.677 142.999C389.836 143.673 380.93 144.43 380.93 144.43L379.179 158.118C377.197 173.611 387.481 186.165 401.73 190.05C403.673 191.396 453.929 210.309 453.929 210.309L487.377 215.614L498.101 205.836C500.913 202.532 500.762 196.899 497.325 194.266Z" fill="#1D2445"/>
<path d="M487.378 216.077C487.354 216.077 487.33 216.075 487.306 216.071L453.857 210.767C453.827 210.762 453.797 210.754 453.768 210.744C451.735 209.978 404.439 192.172 401.546 190.48C386.202 186.265 376.82 172.944 378.722 158.06L380.474 144.37C380.487 144.265 380.536 144.168 380.612 144.095C380.688 144.021 380.786 143.976 380.891 143.967C380.98 143.959 389.786 143.214 399.438 142.551L403.226 137.557C403.29 137.473 403.38 137.414 403.483 137.389C403.585 137.364 403.692 137.375 403.787 137.42C403.787 137.42 407.581 139.216 412.813 141.751C418.757 141.472 422.656 141.433 424.411 141.638L481.974 147.724C483.999 147.983 485.836 149.131 487.159 150.953C488.621 152.971 489.235 155.565 488.804 157.895L484.371 171.816C484.351 171.879 484.318 171.937 484.274 171.986C484.23 172.035 484.176 172.074 484.116 172.1L472.454 177.163L497.579 193.88C499.22 195.136 500.241 197.055 500.477 199.3C500.74 201.782 499.981 204.337 498.45 206.136L487.686 215.956C487.602 216.034 487.492 216.076 487.378 216.077ZM454.048 209.859L487.232 215.122L497.793 205.493C499.123 203.926 499.8 201.631 499.564 199.398C499.354 197.409 498.461 195.717 497.049 194.634L471.239 177.463C471.171 177.417 471.116 177.353 471.08 177.278C471.044 177.203 471.029 177.119 471.037 177.037C471.044 176.954 471.073 176.874 471.121 176.807C471.169 176.739 471.235 176.686 471.31 176.652L483.561 171.334L487.915 157.669C488.287 155.642 487.733 153.314 486.417 151.5C485.246 149.883 483.631 148.869 481.869 148.644L424.312 142.558C422.601 142.358 418.685 142.4 412.743 142.682C412.666 142.688 412.589 142.672 412.522 142.636C409.598 141.219 406.668 139.813 403.734 138.417L400.044 143.28C400.004 143.332 399.954 143.375 399.896 143.406C399.839 143.437 399.775 143.456 399.71 143.46C391.104 144.049 383.126 144.709 381.34 144.859L379.636 158.177C377.79 172.611 386.925 185.534 401.851 189.603C401.901 189.617 401.949 189.639 401.992 189.668C403.546 190.746 440.052 204.592 454.048 209.859Z" fill="#1D2445"/>
<path d="M535.147 301.954L534.882 301.19C534.664 300.559 534.292 299.992 533.799 299.543C533.307 299.093 532.71 298.776 532.064 298.618L517.805 295.151C515.102 294.493 512.714 292.904 511.055 290.66L507.778 286.224C507.408 285.724 506.927 285.318 506.373 285.038C505.82 284.758 505.209 284.612 504.589 284.612H491.617V287.393L489.941 292.008C488.85 295.012 488.305 298.189 488.334 301.388L488.355 303.727H508.54L508.541 303.728H533.893C534.806 303.728 535.446 302.822 535.147 301.954Z" fill="white"/>
<path d="M533.893 304.191L488.356 304.19C488.234 304.19 488.118 304.142 488.032 304.056C487.946 303.97 487.897 303.854 487.896 303.732L487.874 301.392C487.843 298.138 488.396 294.904 489.509 291.848L491.157 287.311V284.611C491.157 284.489 491.205 284.371 491.291 284.284C491.378 284.197 491.495 284.149 491.617 284.149H504.589C505.984 284.149 507.314 284.822 508.147 285.948L511.425 290.382C513.021 292.539 515.316 294.067 517.914 294.7L532.173 298.168C532.895 298.341 533.562 298.696 534.111 299.197C534.661 299.699 535.076 300.332 535.318 301.039L535.582 301.802C535.677 302.073 535.706 302.363 535.666 302.647C535.625 302.931 535.517 303.201 535.35 303.434C535.01 303.915 534.479 304.191 533.893 304.191ZM488.811 303.264L533.893 303.265C534.178 303.265 534.435 303.131 534.6 302.898C534.681 302.785 534.734 302.654 534.753 302.516C534.772 302.379 534.758 302.238 534.712 302.107L534.448 301.343C534.256 300.784 533.927 300.282 533.492 299.885C533.056 299.488 532.528 299.207 531.957 299.069L517.697 295.601C514.891 294.917 512.411 293.266 510.687 290.935L507.408 286.502C507.081 286.06 506.655 285.701 506.166 285.454C505.677 285.206 505.137 285.077 504.589 285.075H492.077V287.394C492.076 287.449 492.067 287.502 492.049 287.554L490.374 292.168C489.299 295.119 488.764 298.241 488.795 301.384L488.811 303.264Z" fill="#1D2445"/>
<path d="M488.333 303.357H534.971V306.881H488.333V303.357Z" fill="white"/>
<path d="M534.971 307.344H488.333C488.211 307.344 488.094 307.295 488.008 307.208C487.921 307.122 487.873 307.004 487.873 306.881V303.356C487.873 303.233 487.921 303.115 488.008 303.028C488.094 302.942 488.211 302.893 488.333 302.893H534.971C535.093 302.893 535.21 302.942 535.297 303.028C535.383 303.115 535.432 303.233 535.432 303.356V306.881C535.432 307.004 535.383 307.122 535.297 307.208C535.21 307.295 535.093 307.344 534.971 307.344ZM488.793 306.418H534.511V303.819H488.793V306.418ZM489.602 294.044L522.001 282.474L500.641 200.603C498.604 193.74 494.703 193.082 489.964 194.651L466.041 202.57L465.984 229.42C465.971 235.908 467.344 242.324 470.012 248.231L489.602 294.044Z" fill="#1D2445"/>
<path d="M489.601 294.507C489.511 294.507 489.423 294.48 489.348 294.431C489.273 294.381 489.214 294.31 489.179 294.227L469.589 248.413C466.887 242.451 465.5 235.971 465.524 229.418L465.58 202.568C465.58 202.47 465.611 202.376 465.667 202.297C465.724 202.218 465.804 202.159 465.896 202.129L489.819 194.211C491.303 193.719 492.587 193.48 493.744 193.48C497.285 193.48 499.685 195.767 501.083 200.47L522.446 282.355C522.476 282.468 522.462 282.587 522.408 282.69C522.354 282.792 522.264 282.871 522.155 282.91L489.757 294.48C489.707 294.498 489.654 294.507 489.601 294.507ZM466.499 202.905L466.444 229.421C466.421 235.844 467.781 242.195 470.43 248.039L489.853 293.463L521.447 282.179L500.195 200.721C498.917 196.419 496.866 194.407 493.742 194.407C492.685 194.407 491.496 194.631 490.105 195.09L466.499 202.905ZM421.825 63.2559H407.462V26.0366C407.462 24.0896 408.231 22.2222 409.599 20.8455C410.968 19.4687 412.824 18.6952 414.759 18.6952H419.272C419.607 18.6952 419.939 18.7617 420.249 18.8908C420.559 19.02 420.841 19.2093 421.078 19.4479C421.315 19.6866 421.503 19.9699 421.632 20.2817C421.76 20.5935 421.826 20.9277 421.826 21.2652L421.825 63.2559Z" fill="#1D2445"/>
<path d="M421.825 63.7197H407.462C407.34 63.7197 407.223 63.6709 407.137 63.5841C407.05 63.4973 407.002 63.3796 407.002 63.2568V26.0366C407.002 21.7327 410.482 18.2323 414.759 18.2323H419.271C420.07 18.2335 420.835 18.5534 421.4 19.1217C421.965 19.69 422.283 20.4605 422.284 21.2642V63.2559C422.285 63.3167 422.273 63.377 422.25 63.4332C422.227 63.4895 422.193 63.5406 422.15 63.5837C422.108 63.6268 422.057 63.661 422.001 63.6844C421.945 63.7077 421.886 63.7197 421.825 63.7197ZM407.922 62.7939H421.365V21.2642C421.364 20.7059 421.144 20.1706 420.751 19.7758C420.359 19.381 419.827 19.1588 419.272 19.1581H414.759C410.988 19.1581 407.921 22.2437 407.921 26.0366L407.922 62.7939Z" fill="#1D2445"/>
<path d="M434.2 119.251L434.897 112.3C435.065 110.617 435.794 109.041 436.964 107.826L440.2 104.465C441.326 103.296 442.044 101.791 442.246 100.176C442.448 98.5609 442.123 96.9235 441.321 95.5101L438.944 91.3237C437.965 89.5996 437.704 87.5557 438.218 85.6385L439.906 79.345C440.679 76.4647 440.448 73.4049 439.252 70.6749C438.056 67.9449 435.967 65.7092 433.333 64.34L422.969 58.9528L416.967 58.7723C412.879 58.6492 408.852 59.8 405.438 62.0672L394.189 69.5382C389.501 72.6547 385.882 77.1487 383.824 82.4085C383.811 82.4344 383.795 82.4575 383.782 82.4844L375.028 100.489L366.291 122.038C365.735 123.41 365.676 124.934 366.124 126.345C366.573 127.756 367.5 128.963 368.744 129.755L370.422 130.823C371.164 131.296 372 131.597 372.871 131.705C373.742 131.813 374.626 131.725 375.459 131.448C375.477 134.52 375.503 136.714 375.503 136.714L376.52 159.403L440.435 156.717L437.785 139.319L434.2 119.251Z" fill="white"/>
<path d="M376.519 159.862C376.401 159.862 376.287 159.816 376.201 159.734C376.116 159.651 376.065 159.539 376.06 159.42L375.043 136.732C375.025 135.172 375.012 133.611 375.002 132.051C373.346 132.42 371.612 132.119 370.176 131.212L368.497 130.144C367.161 129.294 366.165 127.998 365.684 126.484C365.203 124.969 365.266 123.333 365.864 121.861L374.602 100.312L383.368 82.2789C385.508 76.851 389.152 72.3258 393.935 69.1504L405.185 61.6793C408.673 59.3506 412.795 58.1722 416.98 58.3076L422.981 58.4881C423.05 58.4904 423.118 58.5081 423.179 58.54L433.543 63.9271C439.124 66.8285 441.987 73.3618 440.349 79.4636L438.66 85.7571C438.419 86.6478 438.354 87.5778 438.471 88.4935C438.588 89.4093 438.884 90.2928 439.341 91.0933L441.719 95.2787C443.458 98.3431 442.967 102.252 440.529 104.787L437.293 108.147C436.197 109.288 435.514 110.767 435.353 112.346L434.663 119.231L438.237 139.233L440.889 156.643C440.898 156.708 440.894 156.773 440.877 156.836C440.86 156.899 440.83 156.957 440.789 157.007C440.748 157.058 440.697 157.099 440.639 157.128C440.581 157.157 440.518 157.174 440.453 157.177L376.538 159.862H376.519ZM375.458 130.982C375.519 130.982 375.578 130.994 375.634 131.017C375.69 131.04 375.741 131.073 375.783 131.116C375.826 131.159 375.86 131.21 375.883 131.266C375.906 131.322 375.918 131.382 375.918 131.443C375.937 134.512 375.963 136.706 375.963 136.707L376.958 158.918L439.901 156.274L437.329 139.388L433.745 119.333C433.738 119.291 433.736 119.248 433.741 119.205L434.438 112.254C434.62 110.468 435.392 108.795 436.632 107.504L439.868 104.143C442.025 101.903 442.457 98.4468 440.92 95.7388L438.542 91.5534C438.025 90.6477 437.691 89.6481 437.559 88.6121C437.427 87.5761 437.5 86.524 437.773 85.5164L439.462 79.2238C440.986 73.5386 438.32 67.4525 433.121 64.7501L422.849 59.4111L416.953 59.2343C412.958 59.106 409.023 60.2306 405.692 62.4523L394.442 69.9234C389.828 72.9821 386.268 77.4021 384.251 82.577C384.235 82.6113 384.218 82.6449 384.2 82.6779L375.44 100.69L366.716 122.21C366.199 123.481 366.144 124.894 366.56 126.202C366.976 127.509 367.836 128.628 368.989 129.361L370.668 130.43C371.353 130.862 372.125 131.138 372.928 131.237C373.731 131.337 374.546 131.258 375.316 131.006C375.362 130.99 375.41 130.982 375.458 130.982Z" fill="#1D2445"/>
<path d="M418.996 25.8191C418.673 25.8188 418.356 25.7332 418.077 25.5708C417.798 25.4085 417.566 25.1751 417.404 24.894C417.243 24.613 417.158 24.2941 417.157 23.9695C417.157 23.6449 417.241 23.3259 417.402 23.0445C418.155 21.7272 419.7 20.7144 421.535 20.3348C423.574 19.9126 425.597 20.3153 427.086 21.4392C427.279 21.5852 427.442 21.768 427.565 21.9773C427.688 22.1865 427.769 22.4181 427.803 22.6588C427.837 22.8995 427.824 23.1446 427.764 23.3802C427.704 23.6157 427.598 23.837 427.453 24.0314C427.308 24.2259 427.127 24.3897 426.919 24.5135C426.711 24.6373 426.48 24.7187 426.241 24.753C426.002 24.7873 425.758 24.7738 425.524 24.7134C425.29 24.653 425.07 24.5468 424.877 24.4008C424.241 23.9203 423.266 23.7574 422.275 23.962C421.377 24.1481 420.774 24.573 420.593 24.8896C420.432 25.1725 420.2 25.4075 419.919 25.5707C419.639 25.734 419.32 25.8197 418.996 25.8191Z" fill="white"/>
<path d="M418.997 26.282C418.596 26.282 418.201 26.1755 417.852 25.9737C417.325 25.6668 416.939 25.1621 416.78 24.57C416.621 23.9779 416.702 23.3466 417.004 22.814C417.822 21.3828 419.481 20.2866 421.443 19.8811C423.606 19.4358 425.778 19.871 427.363 21.0689C427.855 21.4383 428.174 21.9799 428.261 22.5928C428.304 22.8937 428.288 23.2004 428.213 23.495C428.138 23.7897 428.006 24.0664 427.823 24.3092C427.093 25.2905 425.582 25.5127 424.602 24.7711C424.082 24.3786 423.223 24.2388 422.37 24.4156C421.535 24.5887 421.083 24.9655 420.994 25.1201C420.792 25.4729 420.501 25.766 420.15 25.9699C419.8 26.1739 419.402 26.2815 418.997 26.282ZM423.114 20.6338C422.623 20.6338 422.123 20.6856 421.628 20.7884C419.921 21.1411 418.49 22.0715 417.802 23.276C417.62 23.5956 417.572 23.9746 417.667 24.3299C417.763 24.6853 417.995 24.9881 418.312 25.172C418.952 25.5432 419.832 25.2979 420.196 24.66C420.485 24.1508 421.266 23.6991 422.185 23.5093C423.294 23.2788 424.424 23.4797 425.155 24.0305C425.748 24.4804 426.645 24.3462 427.087 23.7537C427.309 23.4565 427.403 23.0908 427.351 22.7242C427.298 22.3576 427.107 22.0327 426.812 21.8105C425.793 21.0402 424.515 20.6338 423.114 20.6338Z" fill="#1D2445"/>
<path d="M418.814 51.7641L440.246 44.0533V36.9062C440.246 29.512 434.289 23.5185 426.94 23.5185H423.163C415.814 23.5185 409.856 29.512 409.856 36.9062V42.7516C409.857 47.7286 413.868 51.7641 418.814 51.7641Z" fill="#1D2445"/>
<path d="M418.815 52.2271C413.621 52.2271 409.397 47.9768 409.397 42.7526V36.9072C409.397 29.2704 415.574 23.0566 423.164 23.0566H426.941C434.531 23.0566 440.708 29.2704 440.708 36.9072V44.0543C440.707 44.1497 440.678 44.2428 440.623 44.3208C440.569 44.3988 440.491 44.458 440.402 44.4903L418.97 52.2011C418.92 52.2181 418.867 52.2269 418.815 52.2271ZM423.164 23.9814C416.081 23.9814 410.318 29.7796 410.318 36.9063V42.7517C410.318 47.4389 414.088 51.2578 418.735 51.3004L439.786 43.7256V36.9054C439.786 29.7787 434.023 23.9805 426.94 23.9805L423.164 23.9814Z" fill="#1D2445"/>
<path d="M431.101 72.9331V42.9729H415.064V58.4807L429.362 73.6311C429.989 74.2958 431.101 73.8496 431.101 72.9331Z" fill="white"/>
<path d="M430.086 74.4125C429.684 74.4125 429.309 74.2477 429.028 73.9505L414.731 58.7992C414.65 58.713 414.605 58.5987 414.604 58.4798V42.9729C414.604 42.8501 414.653 42.7324 414.739 42.6456C414.826 42.5588 414.943 42.51 415.065 42.51H431.102C431.224 42.51 431.341 42.5588 431.427 42.6456C431.513 42.7324 431.562 42.8501 431.562 42.9729V72.9321C431.562 73.3478 431.398 73.7302 431.102 74.0088C430.825 74.2667 430.463 74.4107 430.086 74.4125ZM415.525 58.2955L429.695 73.3117C430.017 73.6524 430.293 73.5006 430.474 73.3321C430.528 73.2811 430.571 73.2191 430.6 73.1502C430.629 73.0812 430.643 73.0069 430.641 72.9321V43.4367H415.525V58.2955Z" fill="#1D2445"/>
<path d="M426.067 62.344C426.214 62.4902 426.389 62.6058 426.581 62.6839C426.773 62.7621 426.979 62.8014 427.186 62.7995L433.315 62.7097C433.584 62.707 433.848 62.6348 434.081 62.5001C434.314 62.3653 434.509 62.1726 434.647 61.9403L437.1 57.8095C438.345 55.7134 439.002 53.3171 439.002 50.8754V42.8026H415.206V54.3008" fill="white"/>
<path d="M427.174 63.2624C426.64 63.2624 426.121 63.0485 425.743 62.6726C425.659 62.5858 425.612 62.4691 425.612 62.3477C425.612 62.2262 425.66 62.1098 425.745 62.0234C425.83 61.937 425.945 61.8877 426.066 61.886C426.186 61.8843 426.303 61.9304 426.39 62.0144C426.599 62.2227 426.877 62.3662 427.181 62.3366L433.307 62.2458C433.497 62.2439 433.684 62.1929 433.849 62.0978C434.014 62.0026 434.152 61.8665 434.25 61.7024L436.704 57.5706C437.905 55.5463 438.54 53.2324 438.54 50.8745V43.2645H415.667V54.2999C415.667 54.4226 415.619 54.5404 415.532 54.6272C415.446 54.714 415.329 54.7627 415.207 54.7627C415.085 54.7627 414.968 54.714 414.882 54.6272C414.796 54.5404 414.747 54.4226 414.747 54.2999V42.8016C414.747 42.6789 414.796 42.5611 414.882 42.4743C414.968 42.3875 415.085 42.3387 415.207 42.3387H439.002C439.124 42.3387 439.241 42.3875 439.327 42.4743C439.414 42.5611 439.462 42.6789 439.462 42.8016V50.8745C439.462 53.3991 438.782 55.8783 437.496 58.0465L435.043 62.1773C434.863 62.4768 434.611 62.7253 434.309 62.8993C434.008 63.0732 433.668 63.167 433.32 63.1716L427.193 63.2624H427.174Z" fill="#1D2445"/>
<path d="M429.025 58.3113C428.905 58.3114 428.79 58.2646 428.705 58.181C428.619 58.0974 428.569 57.9834 428.565 57.8632C428.561 57.743 428.604 57.626 428.684 57.537C428.764 57.448 428.876 57.394 428.995 57.3864L430.694 57.2725C431.039 57.2512 431.363 57.1 431.601 56.8492C431.84 56.5984 431.976 56.2663 431.982 55.919L432.086 51.316V47.0658C432.086 46.8862 432.19 46.7214 432.353 46.6455L438.815 43.632C438.924 43.5884 439.046 43.5886 439.156 43.6325C439.265 43.6765 439.354 43.761 439.403 43.8685C439.452 43.9761 439.459 44.0986 439.422 44.211C439.384 44.3233 439.305 44.417 439.201 44.4727L433.007 47.3611V51.3262L432.903 55.9394C432.892 56.5182 432.665 57.0717 432.267 57.4898C431.869 57.9078 431.329 58.1598 430.755 58.1955L429.056 58.3094C429.046 58.3113 429.036 58.3113 429.025 58.3113Z" fill="#1D2445"/>
<path d="M414.673 40.7251H414.809C415.415 40.7271 415.995 40.9702 416.424 41.4013C416.853 41.8325 417.094 42.4168 417.096 43.0266V49.4015C417.094 50.0113 416.853 50.5956 416.424 51.0268C415.995 51.458 415.415 51.7011 414.809 51.703H414.673C414.067 51.7011 413.486 51.458 413.058 51.0268C412.629 50.5956 412.388 50.0113 412.386 49.4015V43.0266C412.387 42.4167 412.629 41.8323 413.058 41.4011C413.486 40.9698 414.067 40.7268 414.673 40.7251Z" fill="white"/>
<path d="M427.627 49.8478C434.597 49.8478 440.247 47.1996 440.247 43.933C440.247 40.6663 434.597 38.0181 427.627 38.0181C420.658 38.0181 415.008 40.6663 415.008 43.933C415.008 47.1996 420.658 49.8478 427.627 49.8478Z" fill="#1D2445"/>
<path d="M427.627 50.3107C420.293 50.3107 414.548 47.5093 414.548 43.932C414.548 40.3548 420.293 37.5534 427.627 37.5534C434.962 37.5534 440.708 40.3548 440.708 43.932C440.708 47.5093 434.961 50.3107 427.627 50.3107ZM427.627 38.4801C421.036 38.4801 415.468 40.9769 415.468 43.933C415.468 46.889 421.036 49.3858 427.627 49.3858C434.219 49.3858 439.788 46.889 439.788 43.933C439.788 40.9769 434.219 38.4801 427.627 38.4801Z" fill="#1D2445"/>
<path d="M415.455 35.9897H419.711V44.1024H415.455V35.9897ZM389.912 116.402C389.844 116.403 389.778 116.386 389.718 116.354C389.522 116.247 389.419 116.189 389.591 115.701L389.565 115.681C389.583 115.653 389.603 115.627 389.626 115.602C389.846 115.026 390.388 113.928 391.472 111.737C392.655 109.344 394.241 106.158 395.828 102.971C399.003 96.5998 402.189 90.2341 402.189 90.2341C402.222 90.1672 402.271 90.1093 402.332 90.0657C402.392 90.022 402.462 89.9938 402.536 89.9834C402.61 89.973 402.685 89.9808 402.755 90.0061C402.825 90.0314 402.888 90.0734 402.939 90.1286L405.61 93.0605C405.653 93.1048 405.687 93.1574 405.71 93.2152C405.733 93.273 405.744 93.3349 405.742 93.3971C405.741 93.4593 405.727 93.5205 405.701 93.5772C405.676 93.6338 405.639 93.6847 405.594 93.7268C405.548 93.7689 405.495 93.8013 405.436 93.8221C405.378 93.8429 405.316 93.8517 405.255 93.8479C405.193 93.8441 405.133 93.8279 405.077 93.8001C405.022 93.7724 404.973 93.7337 404.933 93.6864L402.711 91.2488C399.201 98.2662 391.134 114.419 390.419 115.988C390.41 116.042 390.391 116.094 390.363 116.141C390.316 116.22 390.25 116.285 390.171 116.33C390.092 116.376 390.003 116.401 389.912 116.402ZM428.672 119.678H405.961C405.5 119.676 405.058 119.491 404.731 119.163C404.405 118.834 404.221 118.39 404.219 117.925V116.78C404.219 115.816 405.003 115.028 405.961 115.028H428.672C429.63 115.028 430.414 115.816 430.414 116.78V117.925C430.413 118.39 430.229 118.834 429.902 119.163C429.576 119.491 429.134 119.676 428.672 119.678Z" fill="#1D2445"/>
<path d="M428.672 120.141H405.962C405.378 120.14 404.818 119.906 404.406 119.491C403.993 119.076 403.76 118.513 403.76 117.925V116.78C403.76 116.193 403.993 115.629 404.405 115.214C404.818 114.798 405.378 114.565 405.962 114.564H428.672C429.256 114.564 429.816 114.798 430.229 115.214C430.642 115.629 430.874 116.192 430.875 116.78V117.925C430.874 118.513 430.642 119.076 430.229 119.491C429.816 119.907 429.256 120.14 428.672 120.141ZM405.962 115.49C405.255 115.49 404.68 116.069 404.68 116.781V117.926C404.68 118.637 405.255 119.216 405.962 119.216H428.672C429.379 119.216 429.955 118.637 429.955 117.926V116.781C429.955 116.069 429.379 115.49 428.672 115.49H405.962Z" fill="#1D2445"/>
<path d="M425.788 119.595C425.784 119.592 425.784 119.589 425.784 119.585L425.774 119.561C425.61 119.15 425.31 118.808 424.926 118.593C424.541 118.377 424.095 118.3 423.661 118.376L415.607 119.792L406.341 117.518L404.717 116.619C404.637 116.573 404.569 116.507 404.52 116.428C404.472 116.348 404.444 116.258 404.44 116.164L401.557 113.86L403.68 113.144L404.433 113.812C405.337 114.615 406.691 114.617 407.598 113.819L407.797 113.643C407.865 113.584 407.92 113.512 407.96 113.43C408 113.349 408.024 113.261 408.03 113.171C408.036 113.081 408.024 112.99 407.995 112.904C407.966 112.819 407.921 112.739 407.862 112.671L405.541 110.002C405.31 109.737 405.004 109.551 404.664 109.467C404.448 109.318 404.201 109.221 403.941 109.184C403.682 109.146 403.418 109.169 403.169 109.252L395.908 111.669L395.38 111.803C393.905 112.177 392.69 112.499 391.539 113.527L370.545 120.964C367.192 122.151 365.062 124.744 365.108 127.581L365.146 129.934C365.208 133.869 369.377 137.034 374.495 137.034H375.154C377.542 137.034 379.835 136.332 381.571 135.071L396.508 124.218C396.81 124.208 397.114 124.204 397.419 124.227L397.481 124.233L405.313 125.026C406.22 125.122 407.13 124.875 407.867 124.333L409.987 122.783L414.165 123.275C415.12 123.396 416.089 123.303 417 122.999L425.475 120.212C425.536 120.192 425.592 120.161 425.641 120.119C425.689 120.077 425.729 120.026 425.758 119.969C425.788 119.912 425.805 119.849 425.81 119.785C425.815 119.721 425.808 119.656 425.788 119.595Z" fill="white"/>
<path d="M375.151 137.497H374.493C369.15 137.497 364.749 134.108 364.684 129.941L364.646 127.588C364.598 124.553 366.851 121.781 370.39 120.528L391.302 113.12C392.541 112.045 393.866 111.709 395.267 111.354L395.795 111.22L403.022 108.812C403.325 108.712 403.646 108.68 403.963 108.719C404.279 108.758 404.583 108.867 404.853 109.038C405.256 109.153 405.611 109.38 405.886 109.697L408.207 112.366C408.406 112.596 408.507 112.896 408.487 113.201C408.467 113.506 408.327 113.79 408.099 113.992L407.9 114.166C406.852 115.089 405.169 115.082 404.127 114.158L403.574 113.667L402.504 114.028L404.725 115.801C404.777 115.843 404.82 115.896 404.85 115.956C404.88 116.017 404.897 116.083 404.899 116.15L406.511 117.084L415.62 119.318L423.579 117.92C424.117 117.822 424.672 117.915 425.149 118.183C425.627 118.451 425.997 118.876 426.198 119.388L426.206 119.408C426.212 119.422 426.218 119.436 426.223 119.452C426.301 119.695 426.281 119.954 426.165 120.18C426.049 120.407 425.852 120.575 425.609 120.653L417.138 123.439C416.16 123.762 415.123 123.862 414.102 123.734L410.107 123.263L408.132 124.707C407.305 125.319 406.28 125.596 405.259 125.486L397.43 124.694C397.173 124.671 396.915 124.666 396.658 124.676L381.839 135.446C380.017 136.769 377.643 137.497 375.151 137.497ZM403.698 109.629C403.567 109.629 403.437 109.65 403.311 109.691L395.492 112.253C394.12 112.6 392.935 112.899 391.844 113.874C391.799 113.914 391.748 113.945 391.691 113.965L370.696 121.401C367.537 122.52 365.524 124.943 365.566 127.575L365.604 129.927C365.662 133.591 369.649 136.572 374.493 136.572H375.151C377.451 136.572 379.634 135.906 381.3 134.697L396.236 123.844C396.31 123.79 396.398 123.759 396.489 123.756C396.81 123.741 397.131 123.745 397.452 123.766L405.356 124.567C406.151 124.648 406.947 124.432 407.594 123.96L409.715 122.41C409.809 122.342 409.925 122.311 410.04 122.324L414.217 122.815C415.104 122.93 416.005 122.843 416.854 122.561L425.358 119.762L425.354 119.754C425.086 119.09 424.437 118.709 423.739 118.833L415.686 120.248C415.624 120.26 415.56 120.257 415.498 120.241L406.232 117.968C406.193 117.958 406.155 117.944 406.119 117.924L404.496 117.025C404.263 116.894 404.092 116.676 404.017 116.418L401.27 114.223C401.205 114.171 401.156 114.103 401.126 114.025C401.097 113.947 401.089 113.863 401.103 113.78C401.117 113.698 401.153 113.622 401.207 113.558C401.261 113.495 401.331 113.448 401.409 113.421L403.534 112.706C403.611 112.679 403.693 112.674 403.772 112.69C403.851 112.706 403.925 112.743 403.985 112.797L404.737 113.466C405.443 114.093 406.586 114.097 407.294 113.472L407.493 113.296C407.538 113.257 407.566 113.201 407.57 113.141C407.572 113.111 407.568 113.081 407.558 113.053C407.549 113.025 407.534 112.999 407.514 112.977L405.194 110.308C405.025 110.115 404.802 109.979 404.554 109.917C404.501 109.904 404.45 109.882 404.405 109.851C404.197 109.707 403.95 109.629 403.698 109.629Z" fill="#1D2445"/>
<path d="M495.311 264.663L495.276 263.854C495.248 263.186 495.053 262.536 494.709 261.963C494.366 261.39 493.885 260.913 493.311 260.575L480.646 253.127C478.245 251.716 476.412 249.503 475.465 246.873L473.594 241.676C473.383 241.09 473.038 240.562 472.588 240.134C472.138 239.705 471.594 239.389 471.001 239.21L458.576 235.457L457.781 238.121L454.857 242.056C452.953 244.617 451.524 247.503 450.637 250.574L449.988 252.821L469.32 258.661L469.321 258.662L493.602 265.997C493.805 266.058 494.019 266.07 494.228 266.032C494.436 265.993 494.632 265.904 494.799 265.774C494.966 265.643 495.1 265.474 495.189 265.281C495.278 265.087 495.32 264.875 495.311 264.663Z" fill="white"/>
<path d="M493.989 266.519C493.815 266.519 493.641 266.494 493.471 266.442L449.859 253.265C449.742 253.23 449.645 253.151 449.586 253.043C449.528 252.936 449.515 252.81 449.548 252.693L450.196 250.445C451.097 247.32 452.551 244.384 454.49 241.779L457.366 237.91L458.138 235.326C458.156 235.267 458.184 235.213 458.222 235.166C458.26 235.119 458.307 235.08 458.361 235.051C458.414 235.022 458.472 235.004 458.532 234.998C458.592 234.992 458.653 234.998 458.711 235.015L471.134 238.769C471.796 238.97 472.402 239.323 472.904 239.801C473.406 240.279 473.791 240.868 474.028 241.521L475.899 246.717C476.811 249.244 478.573 251.371 480.879 252.729L493.545 260.176C494.187 260.552 494.724 261.084 495.107 261.723C495.491 262.363 495.707 263.089 495.738 263.835L495.772 264.643C495.783 264.885 495.745 265.127 495.66 265.354C495.575 265.581 495.446 265.788 495.279 265.962C495.112 266.137 494.911 266.277 494.69 266.372C494.468 266.468 494.23 266.518 493.989 266.519ZM450.56 252.51L493.736 265.556C493.89 265.602 494.053 265.604 494.208 265.563C494.363 265.522 494.504 265.438 494.614 265.322C494.695 265.237 494.758 265.137 494.799 265.027C494.84 264.917 494.858 264.8 494.852 264.683L494.818 263.875C494.794 263.284 494.622 262.708 494.318 262.201C494.015 261.695 493.59 261.273 493.081 260.975L480.415 253.528C477.923 252.061 476.019 249.762 475.034 247.031L473.163 241.836C472.975 241.318 472.67 240.851 472.272 240.473C471.874 240.094 471.394 239.814 470.87 239.655L458.887 236.036L458.224 238.255C458.209 238.307 458.184 238.356 458.152 238.399L455.227 242.334C453.355 244.849 451.95 247.685 451.081 250.704L450.56 252.51Z" fill="#1D2445"/>
<path d="M450.075 252.472L494.745 265.967L493.738 269.342L449.068 255.848L450.075 252.472Z" fill="white"/>
<path d="M493.734 269.793C493.689 269.793 493.645 269.787 493.602 269.774L448.935 256.279C448.818 256.243 448.72 256.163 448.662 256.055C448.605 255.947 448.592 255.82 448.627 255.703L449.634 252.328C449.669 252.21 449.749 252.111 449.857 252.053C449.964 251.995 450.09 251.982 450.207 252.017L494.874 265.511C494.932 265.528 494.986 265.557 495.033 265.595C495.08 265.633 495.119 265.681 495.147 265.734C495.176 265.788 495.194 265.846 495.2 265.907C495.206 265.967 495.2 266.028 495.182 266.086L494.175 269.462C494.146 269.557 494.088 269.641 494.009 269.701C493.929 269.761 493.833 269.793 493.734 269.793ZM449.64 255.525L493.426 268.753L494.168 266.264L450.382 253.038L449.64 255.525ZM456.687 237.708L489.875 245.681L501.971 158.062C502.595 153.081 498.911 148.604 493.93 148.293L468.794 146.724L458.849 171.64C456.446 177.661 455.358 184.132 455.659 190.613L456.687 237.708Z" fill="#1D2445"/>
<path d="M489.874 246.144C489.839 246.144 489.803 246.14 489.768 246.131L456.58 238.157C456.48 238.134 456.392 238.078 456.328 237.998C456.264 237.918 456.228 237.819 456.226 237.717L455.198 190.624C454.886 184.08 455.986 177.545 458.422 171.469L468.368 146.552C468.442 146.368 468.598 146.234 468.823 146.262L493.958 147.831C496.495 147.989 498.785 149.161 500.406 151.13C502.027 153.099 502.745 155.582 502.427 158.119L490.33 245.743C490.314 245.854 490.26 245.955 490.176 246.029C490.092 246.102 489.985 246.143 489.874 246.144ZM457.138 237.34L489.488 245.113L501.514 157.999C501.658 156.883 501.571 155.749 501.258 154.669C500.945 153.589 500.414 152.585 499.697 151.722C498.986 150.852 498.104 150.139 497.107 149.628C496.109 149.118 495.017 148.821 493.899 148.756L469.096 147.208L459.274 171.814C456.886 177.771 455.809 184.177 456.116 190.593L457.138 237.34Z" fill="#1D2445"/>
<path d="M460.685 173.436C460.603 173.437 460.523 173.415 460.453 173.373L430.855 155.967C430.75 155.906 430.673 155.804 430.642 155.685C430.611 155.567 430.628 155.44 430.69 155.334C430.751 155.228 430.852 155.151 430.97 155.12C431.088 155.088 431.214 155.106 431.319 155.168L460.917 172.573C461.004 172.624 461.072 172.703 461.111 172.797C461.149 172.891 461.156 172.996 461.129 173.094C461.103 173.192 461.045 173.279 460.965 173.341C460.884 173.403 460.786 173.436 460.685 173.436ZM489.875 246.144C489.838 246.144 489.8 246.14 489.764 246.13L478.654 243.359C478.596 243.344 478.54 243.318 478.492 243.282C478.443 243.246 478.402 243.2 478.371 243.148C478.34 243.096 478.319 243.039 478.31 242.979C478.301 242.919 478.304 242.857 478.318 242.798C478.333 242.739 478.359 242.684 478.394 242.635C478.43 242.586 478.475 242.545 478.527 242.513C478.579 242.482 478.636 242.461 478.696 242.452C478.755 242.443 478.816 242.446 478.875 242.461L489.498 245.11L497.35 194.56C497.376 194.445 497.444 194.344 497.541 194.277C497.637 194.211 497.756 194.184 497.871 194.202C497.987 194.22 498.092 194.282 498.164 194.375C498.236 194.468 498.27 194.585 498.26 194.702L490.329 245.753C490.32 245.816 490.297 245.877 490.262 245.931C490.228 245.985 490.182 246.031 490.129 246.066C490.054 246.117 489.965 246.144 489.875 246.144Z" fill="white"/>
<path d="M456.247 210.267H456.235C456.113 210.264 455.998 210.212 455.914 210.123C455.83 210.034 455.784 209.915 455.787 209.792L456.094 198.119C455.807 196.654 456.159 191.775 457.139 183.614C457.631 179.484 458.926 175.491 460.95 171.864L466.582 161.746C466.642 161.639 466.741 161.56 466.859 161.527C466.976 161.493 467.102 161.508 467.209 161.568C467.315 161.628 467.394 161.729 467.427 161.847C467.46 161.965 467.445 162.092 467.385 162.199L461.754 172.317C459.788 175.838 458.53 179.715 458.053 183.725C457.1 191.665 456.729 196.727 457.005 197.979C457.013 198.016 457.017 198.053 457.016 198.091L456.708 209.817C456.705 209.938 456.654 210.052 456.568 210.136C456.482 210.22 456.367 210.267 456.247 210.267Z" fill="white"/>
</g>
<g clip-path="url(#clip4_2019_247)">
<path d="M10.9668 349.001L21.9672 352.845L25.7861 341.781C25.9504 341.305 26.0199 340.802 25.9907 340.299C25.9615 339.796 25.8341 339.304 25.6158 338.851C25.3974 338.397 25.0925 337.992 24.7184 337.657C24.3443 337.322 23.9083 337.065 23.4353 336.9L19.6381 335.573C19.1651 335.408 18.6644 335.338 18.1646 335.367C17.6648 335.397 17.1756 335.525 16.725 335.744C16.2744 335.964 15.8712 336.271 15.5385 336.647C15.2058 337.024 14.95 337.462 14.7858 337.938L10.9668 349.001ZM67.8005 166.758L74.4638 188.415L44.4462 269.688C44.4462 269.688 30.6091 261.581 30.6091 261.094L42.6864 167.79L67.8005 166.758Z" fill="#1D2445"/>
<path d="M33.239 248.802L18.0531 279.926C16.7377 282.622 15.8526 285.51 15.4304 288.484L6.61328 350.627C6.61328 350.627 19.1623 353.365 18.6745 353.202L42.419 289.618L46.7418 259.346L33.239 248.802ZM78.2748 156.393L83.3744 176.453C83.6415 177.516 83.6502 178.629 83.3999 179.696L65.7798 255.914C65.7798 255.914 48.3274 257.405 48.3529 256.917L51.2929 201.912L53.1049 157.425L78.2748 156.393Z" fill="#1D2445"/>
<path d="M34.6688 360.931L32.2441 360.271C32.2441 360.271 28.9811 357.479 27.8322 356.509C27.1218 355.909 25.7816 351.505 25.1441 349.297L23.551 343.451C23.4022 342.905 23.1021 342.412 22.6857 342.031C22.2693 341.649 21.7538 341.395 21.1992 341.297L8.10463 338.988L7.70776 341.346L5.62495 345.019C4.2707 347.408 3.35562 350.022 2.92363 352.737L2.57129 355.525L17.1482 357.412L16.8167 357.819L30.9218 366.103L34.8706 366.542L34.6688 360.931Z" fill="white"/>
<path d="M34.8716 367.019C34.8542 367.019 34.8368 367.018 34.8195 367.017L30.8708 366.577C30.8051 366.57 30.7416 366.548 30.6842 366.515L16.579 358.232C16.5031 358.187 16.4409 358.122 16.3996 358.044C16.3583 357.966 16.3394 357.878 16.3451 357.789L2.51172 355.999C2.45002 355.991 2.39049 355.971 2.33653 355.94C2.28257 355.908 2.23524 355.867 2.19724 355.817C2.15924 355.768 2.13132 355.711 2.11507 355.651C2.09882 355.59 2.09457 355.527 2.10254 355.465L2.45489 352.677C2.89347 349.9 3.82858 347.226 5.21492 344.784L7.25512 341.184L7.63777 338.909C7.6483 338.847 7.67089 338.788 7.70424 338.735C7.73759 338.682 7.78104 338.636 7.83209 338.6C7.88314 338.564 7.94079 338.538 8.00172 338.524C8.06265 338.511 8.12566 338.509 8.18713 338.52L21.2817 340.829C21.9239 340.945 22.5207 341.24 23.0032 341.682C23.4857 342.124 23.8342 342.694 24.0086 343.326L25.6017 349.173C26.9628 353.886 27.8181 355.876 28.1363 356.145C29.1791 357.025 31.96 359.404 32.4696 359.84L34.792 360.473C34.8896 360.499 34.9761 360.557 35.039 360.636C35.1018 360.716 35.1378 360.813 35.1416 360.915L35.3442 366.526C35.3463 366.59 35.3356 366.653 35.3128 366.713C35.2899 366.772 35.2555 366.827 35.2114 366.873C35.1674 366.919 35.1146 366.956 35.0563 366.981C34.9979 367.006 34.9351 367.019 34.8716 367.019ZM31.0754 365.641L34.3791 366.008L34.2086 361.301L32.1201 360.731C32.0529 360.712 31.9905 360.679 31.9373 360.634C31.9373 360.634 28.6762 357.844 27.5282 356.874C26.9239 356.364 25.9692 353.86 24.6905 349.43L23.0955 343.576C22.9697 343.117 22.7173 342.704 22.3676 342.383C22.018 342.063 21.5853 341.849 21.1197 341.766L8.49306 339.54L8.17576 341.426C8.1663 341.481 8.14739 341.534 8.11988 341.582L6.03801 345.256C4.71008 347.593 3.81381 350.153 3.39258 352.812L3.1018 355.113L17.2098 356.939C17.2908 356.95 17.3676 356.982 17.4328 357.032C17.4981 357.081 17.5495 357.147 17.5821 357.222C17.6148 357.298 17.6276 357.38 17.6193 357.462C17.611 357.544 17.5818 357.622 17.5347 357.689L31.0754 365.641Z" fill="#1D2445"/>
<path d="M18.5083 350.075C18.1717 352.072 18.646 353.818 19.5676 353.975C20.4892 354.132 21.5091 352.641 21.8457 350.644C22.1822 348.648 21.708 346.902 20.7864 346.745C19.8648 346.587 18.8448 348.078 18.5083 350.075Z" fill="#1D2445"/>
<path d="M21.8277 359.731L29.3974 366.728H15.2828L2.62295 358.825C1.97793 358.422 2.32649 357.419 3.08043 357.508L21.8277 359.731Z" fill="#1D2445"/>
<path d="M2.20996 358.144L2.72048 355.117L2.84456 355.044C3.40276 354.715 4.05267 354.578 4.69532 354.654L12.3806 355.567C14.828 355.858 17.1916 356.644 19.329 357.878L29.0744 363.677L35.8173 363.753L35.3484 366.773L28.5648 366.704L18.3932 360.777C16.2841 359.583 13.9602 358.824 11.5566 358.542L4.24068 357.685C3.69835 357.621 3.14911 357.709 2.65323 357.939L2.20996 358.144Z" fill="white"/>
<path d="M35.3484 367.25H35.3437L28.5601 367.181C28.4783 367.18 28.3981 367.158 28.3271 367.118L18.1555 361.19C16.1037 360.027 13.8414 359.288 11.5016 359.017L4.18574 358.16C3.72981 358.105 3.26758 358.179 2.85118 358.374L2.40696 358.578C2.32867 358.615 2.24202 358.629 2.15636 358.619C2.0707 358.609 1.98927 358.577 1.92086 358.524C1.85245 358.471 1.79964 358.4 1.76813 358.32C1.73662 358.239 1.7276 358.151 1.74205 358.066L2.25257 355.039C2.26422 354.971 2.2906 354.906 2.32987 354.849C2.36914 354.792 2.42034 354.744 2.47989 354.709L2.60397 354.635C3.25205 354.256 4.00432 354.097 4.7493 354.182L12.4355 355.095C14.947 355.391 17.3724 356.197 19.5639 357.466L29.2051 363.204L35.821 363.277C35.889 363.278 35.9561 363.293 36.0176 363.322C36.0792 363.351 36.1338 363.393 36.1777 363.445C36.2216 363.498 36.2538 363.559 36.272 363.625C36.2902 363.69 36.294 363.76 36.2833 363.827L35.8144 366.847C35.7976 366.959 35.7413 367.062 35.6558 367.135C35.5703 367.209 35.4612 367.25 35.3484 367.25ZM28.6946 366.228L34.944 366.292L35.2651 364.223L29.0687 364.154C28.9857 364.153 28.9045 364.13 28.8329 364.088L19.0875 358.289C17.0082 357.085 14.7073 356.32 12.3247 356.04L4.63943 355.127C4.12488 355.067 3.6044 355.168 3.14954 355.418L2.82182 357.362C3.29673 357.206 3.79944 357.155 4.29561 357.213L11.6106 358.069C14.0773 358.355 16.4622 359.135 18.6253 360.362L28.6946 366.228ZM66.3681 245.915L64.4311 282.148C64.3744 283.206 64.222 284.257 63.9755 285.287L48.5045 350.26C48.5045 350.26 33.6265 350.22 34.137 350.248L37.8527 282.241C37.9646 280.252 38.4084 278.296 39.1655 276.456L49.7055 250.756L66.3681 245.915Z" fill="#1D2445"/>
<path d="M50.1666 352.069H46.002L47.3583 344.353C47.4798 343.662 47.8396 343.035 48.3745 342.584C48.9093 342.133 49.5851 341.885 50.2831 341.885H51.9568L50.1666 352.069Z" fill="white"/>
<path d="M50.1668 352.545H46.0021C45.9328 352.546 45.8643 352.531 45.8014 352.502C45.7385 352.472 45.6828 352.43 45.6383 352.376C45.5938 352.323 45.5615 352.26 45.5439 352.193C45.5262 352.125 45.5236 352.055 45.5361 351.986L46.8924 344.269C47.0325 343.467 47.4495 342.74 48.0699 342.217C48.6904 341.693 49.4745 341.407 50.2842 341.408H51.9579C52.0272 341.407 52.0957 341.422 52.1586 341.451C52.2215 341.481 52.2772 341.524 52.3217 341.577C52.3662 341.631 52.3985 341.693 52.4161 341.761C52.4338 341.828 52.4364 341.899 52.4239 341.967L50.6337 352.152C50.6144 352.262 50.5569 352.362 50.4715 352.434C50.3861 352.506 50.2782 352.546 50.1668 352.545ZM46.5666 351.593H49.769L51.3915 342.361H50.2833C49.6963 342.36 49.1279 342.568 48.6782 342.947C48.2284 343.327 47.9261 343.854 47.8245 344.435L46.5666 351.593Z" fill="#1D2445"/>
<path d="M34.4219 349.92H48.6502V355.126H34.4219V349.92Z" fill="#99644C"/>
<path d="M72.1394 364.006L71.3854 361.824C71.1975 361.281 70.8771 360.793 70.4535 360.407C70.0298 360.02 69.5166 359.747 68.9607 359.611L56.6996 356.63C54.3755 356.065 52.3218 354.698 50.8954 352.768L48.0767 348.953C47.7588 348.523 47.3453 348.173 46.8691 347.932C46.393 347.692 45.8675 347.566 45.3346 347.566H34.1789V349.958L32.7364 353.93C31.7986 356.512 31.3309 359.244 31.3554 361.993L31.3734 364.005H48.7312L48.7321 364.006H72.1394Z" fill="white"/>
<path d="M72.1395 364.482L31.3735 364.481C31.2486 364.481 31.1287 364.431 31.04 364.343C30.9513 364.254 30.9009 364.134 30.8999 364.008L30.8819 361.997C30.855 359.19 31.3325 356.402 32.2913 353.766L33.7045 349.873V347.566C33.7045 347.439 33.7544 347.318 33.8432 347.229C33.932 347.139 34.0525 347.089 34.1781 347.089H45.3347C46.5585 347.089 47.7263 347.679 48.4566 348.667L51.2753 352.483C52.6363 354.323 54.5946 355.626 56.8106 356.165L69.0716 359.147C69.7053 359.3 70.2905 359.611 70.7731 360.051C71.2557 360.491 71.6201 361.047 71.8326 361.667L72.5866 363.849C72.6113 363.921 72.6187 363.998 72.608 364.073C72.5973 364.148 72.5689 364.219 72.5252 364.281C72.4814 364.343 72.4236 364.394 72.3565 364.429C72.2894 364.464 72.215 364.482 72.1395 364.482ZM31.8424 363.528L71.4727 363.529L70.9375 361.979C70.7767 361.511 70.5011 361.091 70.136 360.758C69.7709 360.425 69.3283 360.19 68.8491 360.075L56.588 357.092C54.1568 356.499 52.0082 355.07 50.5148 353.051L47.696 349.236C47.4213 348.866 47.0649 348.566 46.6549 348.359C46.2449 348.151 45.7926 348.043 45.3338 348.042H34.6526V349.957C34.6526 350.014 34.6431 350.068 34.6242 350.121L33.1826 354.094C32.2623 356.622 31.804 359.296 31.83 361.988L31.8424 363.528Z" fill="#1D2445"/>
<path d="M30.5615 363.683H72.1288V366.754H30.5615V363.683Z" fill="white"/>
<path d="M72.1288 367.23H30.5615C30.4359 367.23 30.3154 367.18 30.2266 367.09C30.1378 367.001 30.0879 366.88 30.0879 366.754V363.682C30.0879 363.556 30.1378 363.435 30.2266 363.345C30.3154 363.256 30.4359 363.206 30.5615 363.206H72.1288C72.2544 363.206 72.3748 363.256 72.4636 363.345C72.5524 363.435 72.6023 363.556 72.6023 363.682V366.754C72.6023 366.88 72.5524 367.001 72.4636 367.09C72.3748 367.18 72.2544 367.23 72.1288 367.23ZM31.0351 366.277H71.6552V364.159H31.0351V366.277Z" fill="#1D2445"/>
<path d="M39.0949 361.007C41.1078 361.007 42.7396 359.366 42.7396 357.341C42.7396 355.315 41.1078 353.674 39.0949 353.674C37.082 353.674 35.4502 355.315 35.4502 357.341C35.4502 359.366 37.082 361.007 39.0949 361.007Z" fill="#1D2445"/>
<path d="M41.8078 269.416C41.73 269.416 41.6534 269.396 41.5847 269.359C41.516 269.322 41.4575 269.269 41.4142 269.204C41.371 269.139 41.3443 269.064 41.3366 268.986C41.329 268.908 41.3405 268.83 41.3703 268.757L47.7702 253.234L50.6364 205.948C50.8571 201.209 51.1583 194.1 51.1317 192.822C47.8384 190.538 45.1464 187.483 43.2876 183.919C41.4289 180.356 40.4591 176.392 40.4619 172.367C40.4619 172.241 40.5118 172.12 40.6006 172.03C40.6894 171.941 40.8099 171.891 40.9355 171.891C41.0611 171.891 41.1816 171.941 41.2704 172.03C41.3592 172.12 41.4091 172.241 41.4091 172.367C41.4063 176.274 42.3566 180.122 44.1767 183.573C45.9967 187.024 48.6308 189.973 51.8478 192.161C52.1386 192.361 52.2172 192.414 51.5826 206L48.7117 253.372C48.7088 253.425 48.6969 253.477 48.6767 253.526L42.2464 269.122C42.2101 269.209 42.1491 269.283 42.0711 269.335C41.9931 269.388 41.9015 269.415 41.8078 269.416Z" fill="white"/>
<path d="M18.6934 86.6494H29.5858V38.1296C23.5703 38.1296 18.6934 43.0362 18.6934 49.0882V86.6494Z" fill="#1D2445"/>
<path d="M65.5827 57.0222L62.6133 54.4102C62.4726 54.1743 62.388 53.9088 62.3664 53.6345C62.3447 53.3602 62.3864 53.0846 62.4883 52.8293L63.3161 50.7586C63.4004 50.5471 63.444 50.3212 63.444 50.0925V43.8109L59.6866 46.6287V42.9752H34.0051V56.1798C34.0044 57.7323 34.3184 59.2687 34.9279 60.695C35.5375 62.1213 36.4298 63.4075 37.5504 64.4749L37.5106 67.8102L31.1816 83.9764L41.8695 97.2401L52.5033 70.9586L59.8826 70.9891C60.3497 70.991 60.8125 70.9001 61.2446 70.7216C61.6766 70.5431 62.0694 70.2805 62.4004 69.949C62.7313 69.6174 62.994 69.2234 63.1732 68.7895C63.3525 68.3556 63.4448 67.8903 63.4449 67.4204V60.8824L65.2332 59.9486C65.4894 59.8147 65.7093 59.6199 65.8737 59.3811C66.038 59.1423 66.142 58.8667 66.1764 58.5783C66.2109 58.2899 66.1748 57.9973 66.0713 57.7261C65.9678 57.455 65.8001 57.2133 65.5827 57.0222Z" fill="white"/>
<path d="M41.8702 97.7166C41.7997 97.7166 41.73 97.7007 41.6664 97.67C41.6028 97.6393 41.5469 97.5947 41.5027 97.5394L30.8139 84.2766C30.761 84.2112 30.7264 84.1327 30.7136 84.0493C30.7007 83.9659 30.7102 83.8806 30.741 83.8021L37.0378 67.7177L37.0747 64.6751C35.9492 63.5698 35.0557 62.2485 34.4472 60.7894C33.8387 59.3303 33.5276 57.7631 33.5323 56.1807V42.9752C33.5323 42.8488 33.5822 42.7276 33.671 42.6383C33.7598 42.5489 33.8803 42.4987 34.0059 42.4987H59.6864C59.812 42.4987 59.9324 42.5489 60.0212 42.6383C60.1101 42.7276 60.1599 42.8488 60.1599 42.9752V45.6796L63.1606 43.4288C63.231 43.3759 63.3147 43.3438 63.4022 43.336C63.4897 43.3283 63.5777 43.3452 63.6562 43.3848C63.7347 43.4245 63.8008 43.4853 63.8469 43.5606C63.893 43.6358 63.9174 43.7225 63.9174 43.8109V50.0925C63.9174 50.3832 63.8624 50.6681 63.7544 50.9378L62.9266 53.0075C62.8572 53.1838 62.8266 53.3731 62.8367 53.5624C62.8468 53.7517 62.8975 53.9366 62.9853 54.1043L65.8941 56.6639C66.1695 56.9062 66.3819 57.2125 66.5129 57.5561C66.6439 57.8998 66.6894 58.2704 66.6456 58.6359C66.6019 59.0013 66.4701 59.3504 66.2617 59.6529C66.0533 59.9554 65.7746 60.2022 65.4499 60.3717L63.9174 61.1731V67.4214C63.9174 68.502 63.4987 69.5178 62.7391 70.2821C61.9795 71.0463 60.9707 71.4665 59.8976 71.4665L52.8213 71.4379L42.3078 97.4212C42.2722 97.5086 42.2116 97.5834 42.1337 97.636C42.0558 97.6886 41.964 97.7166 41.8702 97.7166ZM31.7242 83.8926L41.7338 96.3139L52.0655 70.7795C52.1011 70.6918 52.1618 70.6168 52.2399 70.5638C52.3179 70.5109 52.4099 70.4825 52.504 70.4822H52.5059L59.8853 70.5117C60.7188 70.5117 61.4907 70.1896 62.0713 69.6064C62.3577 69.3199 62.5848 68.9791 62.7394 68.6037C62.894 68.2283 62.9731 67.8258 62.9721 67.4195V60.8824C62.9721 60.7043 63.0706 60.5423 63.2278 60.4603L65.0161 59.5264C65.4035 59.3235 65.6554 58.9576 65.7075 58.5221C65.7347 58.3103 65.7093 58.095 65.6334 57.8956C65.5575 57.6962 65.4336 57.5188 65.2727 57.3795L62.3034 54.7676C62.2659 54.7352 62.2339 54.6969 62.2087 54.6542C62.0315 54.3548 61.9251 54.0185 61.8977 53.6712C61.8703 53.3239 61.9226 52.9749 62.0505 52.6511L62.8783 50.5804C62.9408 50.4242 62.973 50.2603 62.973 50.0916V44.759L59.9724 47.0098C59.9018 47.062 59.8182 47.0935 59.731 47.1009C59.6437 47.1083 59.5561 47.0913 59.4778 47.0517C59.3995 47.0122 59.3336 46.9517 59.2874 46.8769C59.2411 46.8021 59.2163 46.7158 59.2156 46.6277V43.4516H34.4804V56.1798C34.4804 59.2072 35.6871 62.0307 37.8779 64.13C37.9251 64.1751 37.9626 64.2295 37.9878 64.2899C38.0131 64.3502 38.0257 64.4152 38.0247 64.4807L37.9849 67.8159C37.9839 67.874 37.9727 67.9314 37.9518 67.9855L31.7242 83.8926Z" fill="#1D2445"/>
<path d="M57.9648 52.3328C57.8712 52.3328 57.7797 52.3049 57.7019 52.2526C57.624 52.2003 57.5634 52.126 57.5275 52.039C57.4916 51.952 57.4822 51.8563 57.5003 51.7639C57.5185 51.6716 57.5634 51.5867 57.6295 51.52L58.6401 50.5032C58.7825 50.359 58.952 50.2446 59.1386 50.1668C59.3253 50.0889 59.5254 50.0491 59.7275 50.0496H62.8664C62.992 50.0496 63.1124 50.0998 63.2012 50.1892C63.2901 50.2785 63.34 50.3997 63.34 50.5261C63.34 50.6525 63.2901 50.7736 63.2012 50.863C63.1124 50.9524 62.992 51.0026 62.8664 51.0026H59.7275C59.6498 51.002 59.5728 51.0172 59.501 51.0471C59.4293 51.0771 59.3643 51.1212 59.3098 51.1769L58.2991 52.1937C58.2103 52.2826 58.0901 52.3326 57.9648 52.3328ZM52.457 30.7559H51.9266C50.849 30.7559 49.8154 31.1866 49.0534 31.9532C48.2914 32.7199 47.8633 33.7597 47.8633 34.8439V49.0405H66.6787V45.064C66.6787 37.1614 60.3109 30.7559 52.457 30.7559Z" fill="#1D2445"/>
<path d="M50.0332 48.8375H28.8896V44.0977C28.8896 36.5258 34.9913 30.3871 42.5175 30.3871H46.9691C47.7818 30.3871 48.5611 30.7119 49.1358 31.29C49.7104 31.8681 50.0332 32.6522 50.0332 33.4698V48.8375Z" fill="#1D2445"/>
<path d="M44.9616 65.5546H41.2601C38.9779 65.5546 36.7892 64.6425 35.1754 63.0189C33.5617 61.3954 32.6551 59.1934 32.6551 56.8973V51.6238C32.6551 51.1239 32.5572 50.6289 32.367 50.167C32.1769 49.7051 31.8981 49.2855 31.5468 48.9319C31.1954 48.5784 30.7783 48.298 30.3192 48.1067C29.8601 47.9154 29.3681 47.8169 28.8711 47.8169H27.9287V43.8871H54.0818L44.9616 65.5546Z" fill="#1D2445"/>
<path d="M30.7694 50.2002C30.3926 50.2002 30.0312 50.0496 29.7648 49.7815C29.4983 49.5135 29.3486 49.1499 29.3486 48.7708V36.8593C29.3486 36.4802 29.4983 36.1166 29.7648 35.8486C30.0312 35.5805 30.3926 35.4299 30.7694 35.4299C31.1462 35.4299 31.5076 35.5805 31.774 35.8486C32.0404 36.1166 32.1901 36.4802 32.1901 36.8593V48.7708C32.1901 49.1499 32.0404 49.5135 31.774 49.7815C31.5076 50.0496 31.1462 50.2002 30.7694 50.2002Z" fill="white"/>
<path d="M30.7693 50.6767C29.7246 50.6767 28.875 49.8219 28.875 48.7708V36.8593C28.875 35.8083 29.7246 34.9535 30.7693 34.9535C31.8141 34.9535 32.6637 35.8083 32.6637 36.8593V48.7708C32.6637 49.8209 31.8141 50.6767 30.7693 50.6767ZM30.7693 35.9064C30.2474 35.9064 29.8222 36.3333 29.8222 36.8593V48.7708C29.8331 49.0162 29.9376 49.2479 30.1141 49.4176C30.2905 49.5873 30.5252 49.6821 30.7693 49.6821C31.0134 49.6821 31.2482 49.5873 31.4246 49.4176C31.601 49.2479 31.7056 49.0162 31.7165 48.7708V36.8593C31.7165 36.3333 31.2912 35.9064 30.7693 35.9064Z" fill="#1D2445"/>
<path d="M48.4533 59.7294H51.6074L51.3072 53.0856C51.2604 52.0519 50.8193 51.0762 50.0758 50.3613C49.3322 49.6464 48.3433 49.2474 47.3149 49.2473H47.0856C44.8901 49.2473 43.3453 51.419 44.0538 53.5106L45.4215 57.5462C45.6372 58.1829 46.0455 58.7358 46.5892 59.1273C47.1329 59.5188 47.7847 59.7293 48.4533 59.7294Z" fill="white"/>
<path d="M48.2242 73.522C48.1121 73.5219 48.0037 73.4819 47.9182 73.4089C47.8327 73.336 47.7756 73.2349 47.7573 73.1237C47.6398 72.4166 47.8425 71.7009 48.3123 71.1606C48.7821 70.6203 49.4631 70.3221 50.1735 70.3497L52.5423 70.4307C52.6678 70.4352 52.7864 70.4896 52.872 70.582C52.9576 70.6743 53.0032 70.7971 52.9989 70.9234C52.9918 71.0487 52.937 71.1665 52.8458 71.2523C52.7545 71.338 52.634 71.385 52.5092 71.3836L50.1403 71.3026C49.93 71.2954 49.7206 71.3352 49.5275 71.4193C49.3343 71.5034 49.1621 71.6296 49.0234 71.7888C48.8846 71.948 48.7827 72.1362 48.7251 72.3399C48.6675 72.5436 48.6556 72.7576 48.6902 72.9664C48.7016 73.0346 48.6981 73.1045 48.68 73.1713C48.6618 73.238 48.6295 73.2999 48.5851 73.3528C48.5408 73.4057 48.4855 73.4482 48.4232 73.4774C48.3609 73.5066 48.293 73.5218 48.2242 73.522ZM63.3713 64.8904C63.326 64.8904 63.281 64.8836 63.2377 64.8704L61.6332 64.3959C61.3411 64.3085 61.0696 64.1628 60.8349 63.9672C60.6002 63.7717 60.4072 63.5305 60.2674 63.2581L59.862 62.4614C59.8252 62.3894 59.8073 62.309 59.8101 62.2281C59.8128 62.1471 59.836 62.0681 59.8776 61.9987C59.9191 61.9293 59.9776 61.8718 60.0475 61.8315C60.1174 61.7912 60.1964 61.7696 60.2769 61.7687L63.3646 61.7267C63.4274 61.7258 63.4897 61.7375 63.5479 61.7611C63.6061 61.7846 63.6591 61.8196 63.7038 61.8639C63.7485 61.9082 63.784 61.9611 63.8082 62.0193C63.8324 62.0775 63.8449 62.1401 63.8449 62.2032V64.414C63.8451 64.4766 63.833 64.5387 63.8093 64.5966C63.7856 64.6545 63.7507 64.7071 63.7067 64.7514C63.6627 64.7957 63.6104 64.8308 63.5528 64.8547C63.4952 64.8785 63.4335 64.8907 63.3713 64.8904ZM61.0526 62.7111L61.1104 62.8235C61.2714 63.1409 61.5603 63.381 61.9013 63.482L62.8977 63.7774V62.6854L61.0526 62.7111Z" fill="#1D2445"/>
<path d="M84.1152 78.904C84.111 78.7706 84.078 78.6397 84.0183 78.5205C83.9585 78.4014 83.8736 78.2968 83.7694 78.2141L83.7893 78.2036L79.7743 70.7794C79.4398 70.1611 78.9415 69.6482 78.3347 69.2976C77.7279 68.947 77.0364 68.7726 76.337 68.7935L67.7955 69.048C67.5528 68.7428 67.2112 68.5333 66.8305 68.4559C66.4497 68.3786 66.054 68.4384 65.7127 68.6249L65.331 68.8345C65.1178 68.9511 64.9295 69.1089 64.7769 69.2987C64.6244 69.4886 64.5105 69.7068 64.4418 69.941C64.3731 70.1752 64.3509 70.4207 64.3766 70.6634C64.4022 70.9062 64.4752 71.1415 64.5912 71.3559L66.3265 74.5644L65.9277 74.7884C65.5157 75.0199 65.2118 75.4062 65.0826 75.8628C64.9533 76.3194 65.0093 76.8089 65.2382 77.224L66.8275 80.0723C67.6773 81.5956 69.033 82.7693 70.6569 83.3875L72.7075 84.1689C72.7956 84.2232 72.8884 84.2652 72.9803 84.3118L69.0533 109.335C68.8744 110.968 68.8032 112.611 68.8402 114.254L68.987 120.752C69.0303 122.662 69.8255 124.475 71.1979 125.794C72.5702 127.114 74.4072 127.83 76.3048 127.787C77.4753 127.76 78.6291 127.502 79.7003 127.027C80.7715 126.551 81.7391 125.868 82.5479 125.017C83.3566 124.165 83.9907 123.161 84.4139 122.063C84.837 120.965 85.0409 119.794 85.014 118.616L84.1152 78.904Z" fill="white"/>
<path d="M76.1372 128.263C72.0275 128.263 68.6072 124.899 68.5135 120.762L68.3667 114.264C68.3301 112.6 68.4022 110.936 68.5826 109.281L72.4594 84.5739L70.4893 83.8335C68.7618 83.1743 67.3194 81.9258 66.4136 80.3058L64.8252 77.4575C64.5366 76.9336 64.4652 76.3162 64.6267 75.7397C64.7881 75.1631 65.1692 74.674 65.6871 74.3786L64.1754 71.5837C63.879 71.0358 63.8117 70.405 63.9879 69.8065C64.1641 69.2081 64.56 68.7145 65.1046 68.4162L65.4863 68.2066C65.89 67.9935 66.35 67.9135 66.8013 67.978C67.2526 68.0425 67.6723 68.2481 68.0011 68.5658L76.4536 68.3162C77.2189 68.3161 77.9701 68.5238 78.6279 68.9174C79.2857 69.3111 79.8258 69.876 80.1911 70.5527L84.2014 77.9683C84.4419 78.2218 84.5812 78.5496 84.5897 78.8945L85.4886 118.605C85.5454 121.127 84.6229 123.521 82.8905 125.345C81.1581 127.168 78.8234 128.204 76.3162 128.262L76.1372 128.263ZM66.4988 68.8993C66.3029 68.8991 66.11 68.9486 65.9381 69.0432L65.5564 69.2529C65.3976 69.3391 65.2574 69.4562 65.1439 69.5974C65.0305 69.7386 64.9459 69.901 64.8953 70.0752C64.8437 70.2492 64.8269 70.4318 64.8459 70.6124C64.8649 70.793 64.9194 70.968 65.0061 71.1273L66.7413 74.3357C66.8011 74.4459 66.8152 74.5754 66.7806 74.696C66.7461 74.8167 66.6656 74.9187 66.5566 74.9799L66.1579 75.2039C65.8555 75.374 65.6324 75.6577 65.5374 75.9929C65.4424 76.3281 65.4833 76.6875 65.6511 76.9925L67.2386 79.8379C68.0351 81.2632 69.304 82.3617 70.8236 82.9416L72.8742 83.722C73.0059 83.7935 73.058 83.8183 73.1101 83.844C73.2976 83.9355 73.4804 84.1775 73.4472 84.3843L69.5203 109.407C69.3461 111.012 69.2768 112.626 69.3129 114.24L69.4597 120.738C69.5411 124.362 72.537 127.31 76.1363 127.31L76.2935 127.308C77.4023 127.285 78.4957 127.042 79.5104 126.592C80.5251 126.142 81.4409 125.493 82.2047 124.684C82.9728 123.88 83.5747 122.93 83.9756 121.89C84.3766 120.85 84.5685 119.741 84.5404 118.626L83.6416 78.9155C83.6387 78.8509 83.6219 78.7876 83.5923 78.7302C83.5627 78.6728 83.521 78.6225 83.4701 78.5829C83.3842 78.5121 83.3256 78.4134 83.3044 78.3037L79.3576 71.0072C79.0736 70.481 78.6538 70.0417 78.1423 69.7356C77.6309 69.4295 77.0468 69.268 76.4517 69.2681L76.3503 69.27L67.8088 69.5245C67.7352 69.5283 67.6617 69.5141 67.5949 69.4828C67.528 69.4516 67.4697 69.4044 67.4252 69.3453C67.3133 69.2065 67.1721 69.0945 67.0119 69.0174C66.8517 68.9403 66.6765 68.9 66.4988 68.8993Z" fill="#1D2445"/>
<path d="M82.4008 131.451L83.9343 128.599C84.9104 126.781 85.3191 124.71 85.1069 122.655L85.1097 122.583L84.8085 109.052L88.6645 108.949L88.3888 98.5256L72.1923 98.9592L70.1218 99.0135L69.5109 102.509C69.2823 102.21 69.0305 101.93 68.7579 101.671L59.8318 93.3608L52.676 85.9757L56.8748 86.4045L51.9665 75.9538L33.4855 72.6196L31.8743 79.1776C29.9745 80.0513 28.2944 81.344 26.9585 82.9597C25.3339 84.9277 24.2245 87.2735 23.7315 89.7832C23.2386 92.293 23.3776 94.8869 24.136 97.3288L32.2674 123.504C33.3794 125.74 41.1717 145.376 41.1717 145.376L37.1491 185.447L84.5073 177.824L84.2147 162.294C84.1391 158.263 83.0476 154.317 81.0426 150.827L76.2983 142.566L71.8996 131.983L72.7407 132.838C75.6068 135.757 80.4611 135.06 82.4008 131.451Z" fill="white"/>
<path d="M37.1484 185.925C37.0821 185.925 37.0165 185.911 36.9558 185.884C36.8952 185.858 36.8408 185.818 36.7964 185.769C36.752 185.719 36.7184 185.661 36.6979 185.597C36.6775 185.534 36.6705 185.467 36.6776 185.401L40.6889 145.445C40.0628 143.869 32.8918 125.825 31.8433 123.717L23.6835 97.4717C22.8958 94.9546 22.7494 92.2788 23.2578 89.6899C23.7662 87.1011 24.9131 84.6823 26.5932 82.6557C27.9234 81.0432 29.587 79.7418 31.4682 78.8421L33.0263 72.5052C33.0552 72.3877 33.1275 72.2857 33.2285 72.2198C33.3294 72.154 33.4515 72.1293 33.57 72.1507L52.052 75.4841C52.1262 75.4976 52.1962 75.5287 52.2561 75.5747C52.316 75.6208 52.3642 75.6805 52.3968 75.749L57.2548 86.0929C57.3182 86.1663 57.3578 86.2575 57.3683 86.3541C57.3787 86.4508 57.3595 86.5484 57.3132 86.6338C57.2669 86.7192 57.1958 86.7883 57.1093 86.8318C57.0228 86.8753 56.9252 86.8911 56.8295 86.8772L53.9283 86.5808L60.173 93.0273L69.082 101.321L69.2175 101.45L69.657 98.9297C69.6764 98.8218 69.7321 98.7238 69.8146 98.6522C69.8972 98.5806 70.0017 98.5396 70.1107 98.5361L88.3777 98.0473C88.6135 98.0482 88.856 98.2474 88.8636 98.5104L89.1392 108.933C89.1425 109.06 89.0958 109.183 89.0093 109.274C88.9228 109.366 88.8036 109.42 88.6779 109.423L85.2937 109.514L85.5845 122.572C85.7995 124.773 85.3752 126.923 84.3522 128.826L82.8188 131.678C82.2564 132.723 81.4233 133.596 80.4078 134.204C79.3923 134.812 78.2322 135.133 77.0505 135.131C75.663 135.134 74.3112 134.689 73.1937 133.862L76.7351 142.381L81.452 150.587C83.494 154.149 84.607 158.173 84.6875 162.284L84.9802 177.813C84.9821 177.928 84.9429 178.04 84.8697 178.128C84.7965 178.216 84.6942 178.275 84.5814 178.294L37.2232 185.917C37.1986 185.922 37.1735 185.925 37.1484 185.925ZM33.839 73.1675L32.3339 79.2919C32.3168 79.3613 32.2844 79.4259 32.2392 79.481C32.1939 79.536 32.137 79.5802 32.0725 79.6102C30.2359 80.4531 28.6122 81.7023 27.3225 83.2646C25.7436 85.1688 24.6656 87.4416 24.1877 89.8743C23.7097 92.307 23.847 94.8215 24.5871 97.1868L32.7185 123.362C33.7982 125.52 41.2922 144.397 41.6114 145.2C41.6398 145.271 41.6502 145.347 41.6427 145.424L37.6816 184.878L84.0254 177.419L83.7413 162.304C83.6649 158.353 82.5954 154.487 80.6327 151.065L75.8884 142.804L71.4632 132.168C71.4204 132.065 71.4144 131.952 71.4461 131.845C71.4778 131.739 71.5452 131.648 71.6368 131.586C71.7284 131.525 71.8385 131.497 71.948 131.509C72.0576 131.52 72.1598 131.569 72.237 131.648L73.0781 132.504C73.5961 133.035 74.2144 133.457 74.8968 133.745C75.5791 134.032 76.3117 134.18 77.0515 134.178C78.0625 134.18 79.0551 133.906 79.924 133.385C80.7928 132.865 81.5054 132.118 81.9862 131.223L83.5197 128.371C84.4516 126.638 84.8415 124.662 84.6383 122.702C84.6364 122.665 84.6364 122.628 84.6383 122.591L84.3371 109.061C84.3345 108.935 84.3816 108.813 84.468 108.722C84.5544 108.631 84.6731 108.578 84.7983 108.574L88.1807 108.484L87.9287 99.0135L70.5217 99.4795L69.978 102.592C69.9621 102.682 69.9204 102.766 69.858 102.834C69.7956 102.901 69.7151 102.949 69.6264 102.971C69.5376 102.993 69.4443 102.989 69.3578 102.959C69.2713 102.929 69.1953 102.875 69.1389 102.802C68.9268 102.523 68.6923 102.262 68.438 102.021L59.5109 93.7096L52.339 86.3064C52.2706 86.2367 52.2253 86.1473 52.2093 86.0507C52.1934 85.9541 52.2075 85.8548 52.2499 85.7666C52.2922 85.6784 52.3607 85.6055 52.4458 85.558C52.5309 85.5104 52.6286 85.4906 52.7254 85.5011L56.0898 85.8442L51.6438 76.3769L33.839 73.1675Z" fill="#1D2445"/>
<path d="M64.941 180.981L69.6692 180.188C70.507 180.048 71.2735 179.628 71.8458 178.997C72.4182 178.366 72.7631 177.559 72.8252 176.707L74.5595 152.882L74.8957 175.016C74.9039 175.558 75.027 176.092 75.2568 176.583C75.4867 177.073 75.8179 177.509 76.2284 177.86C76.6389 178.212 77.1193 178.471 77.6374 178.621C78.1555 178.771 78.6994 178.808 79.2328 178.729L80.4764 178.546L79.8712 185.312L64.9419 188.289L64.941 180.981ZM68.1358 78.2417C68.0527 78.2417 67.971 78.2197 67.899 78.1779C67.827 78.1361 67.7672 78.0759 67.7257 78.0035L65.1674 73.5543C65.1331 73.5001 65.1101 73.4395 65.0997 73.3761C65.0894 73.3126 65.0918 73.2478 65.107 73.1854C65.1222 73.123 65.1498 73.0643 65.1882 73.0129C65.2265 72.9615 65.2747 72.9184 65.33 72.8862C65.3853 72.8541 65.4465 72.8335 65.5099 72.8257C65.5733 72.818 65.6376 72.8232 65.699 72.8411C65.7603 72.859 65.8174 72.8892 65.8669 72.9299C65.9163 72.9706 65.9571 73.0209 65.9867 73.0779L68.5459 77.5271C68.5875 77.5995 68.6094 77.6816 68.6094 77.7653C68.6094 77.8489 68.5875 77.9311 68.5459 78.0035C68.5043 78.0759 68.4446 78.1361 68.3726 78.1779C68.3006 78.2197 68.2189 78.2417 68.1358 78.2417ZM57.0066 90.9318C56.8827 90.9316 56.7637 90.8827 56.6751 90.7955L52.1069 86.2958C51.0046 85.2114 49.6445 84.4293 48.1563 84.0241L45.1396 83.2065C45.0777 83.192 45.0193 83.1651 44.9679 83.1274C44.9166 83.0897 44.8733 83.042 44.8407 82.9871C44.808 82.9323 44.7867 82.8713 44.7779 82.808C44.7692 82.7447 44.7732 82.6802 44.7897 82.6185C44.8063 82.5567 44.835 82.499 44.8742 82.4486C44.9134 82.3983 44.9622 82.3564 45.0179 82.3255C45.0735 82.2945 45.1347 82.2752 45.1979 82.2685C45.2612 82.2619 45.3251 82.2682 45.3858 82.2869L48.4025 83.1045C50.0471 83.5518 51.5502 84.416 52.768 85.6145L57.3362 90.1142C57.4036 90.1803 57.4499 90.265 57.4691 90.3577C57.4884 90.4503 57.4798 90.5467 57.4445 90.6344C57.4091 90.7221 57.3486 90.7973 57.2706 90.8502C57.1926 90.9032 57.1007 90.9316 57.0066 90.9318ZM86.3469 109.537H68.4531C68.3275 109.537 68.207 109.486 68.1182 109.397C68.0294 109.308 67.9795 109.186 67.9795 109.06C67.9795 108.934 68.0294 108.813 68.1182 108.723C68.207 108.634 68.3275 108.584 68.4531 108.584H86.3469C86.4725 108.584 86.593 108.634 86.6818 108.723C86.7706 108.813 86.8205 108.934 86.8205 109.06C86.8205 109.186 86.7706 109.308 86.6818 109.397C86.593 109.486 86.4725 109.537 86.3469 109.537Z" fill="#1D2445"/>
<path d="M69.5882 102.369L67.4258 112.92L69.5882 102.369Z" fill="white"/>
<path d="M67.4266 113.397C67.3562 113.397 67.2867 113.381 67.223 113.351C67.1594 113.321 67.1032 113.277 67.0587 113.222C67.0141 113.167 66.9823 113.103 66.9655 113.034C66.9487 112.965 66.9474 112.894 66.9616 112.824L69.123 102.273C69.1348 102.211 69.1588 102.152 69.1935 102.1C69.2283 102.048 69.273 102.003 69.3252 101.968C69.3774 101.934 69.4359 101.91 69.4973 101.899C69.5587 101.887 69.6218 101.888 69.6828 101.902C69.8057 101.927 69.9136 102.001 69.9827 102.106C70.0517 102.212 70.0764 102.34 70.0512 102.464L67.8898 113.016C67.868 113.123 67.81 113.22 67.7256 113.289C67.6413 113.359 67.5357 113.397 67.4266 113.397ZM39.4199 143.894L78.7832 138.123L79.6934 144.41L40.3301 150.181L39.4199 143.894Z" fill="#1D2445"/>
<path d="M87.7428 137.514L85.5426 134.916C84.8625 134.112 83.9512 133.541 82.9346 133.281C81.918 133.021 80.8462 133.085 79.8671 133.463L78.3801 134.039C78.1244 134.141 77.8887 134.289 77.6839 134.474C76.8059 135.018 75.9563 135.831 75.1683 136.971C74.9717 137.259 74.7966 137.562 74.6445 137.876L69.274 145.837C69.1329 146.034 69.0647 146.527 69.2939 146.692L69.3044 146.7C70.0413 147.356 71.2906 148.263 71.8863 147.656L72.5418 146.902C72.4196 147.12 72.3713 147.551 72.5853 147.706L72.5958 147.713C73.3326 148.37 74.582 149.277 75.1777 148.67L75.656 148.119L75.5102 148.336C75.3691 148.533 75.3009 149.026 75.5301 149.191L75.5405 149.199C76.2774 149.856 77.5267 150.763 78.1234 150.156L78.3668 149.875C78.3469 150.034 78.3697 150.189 78.4682 150.268L78.4777 150.276C79.1094 150.911 80.1996 151.792 80.819 151.21L86.9036 144.815C87.385 144.504 87.798 144.097 88.1169 143.62C88.7198 142.698 89.0093 141.605 88.9418 140.504C88.8744 139.403 88.4536 138.354 87.7428 137.514Z" fill="white"/>
<path d="M80.3298 151.877C79.591 151.877 78.7822 151.242 78.212 150.68C77.3785 151.159 76.061 150.297 75.2293 149.555L75.2331 149.551C75.1489 149.48 75.0782 149.394 75.0248 149.297C74.1931 149.54 73.0386 148.742 72.2837 148.071L72.2884 148.064C72.2642 148.042 72.2411 148.019 72.2193 147.995C72.109 148.104 71.9781 148.19 71.8344 148.248C71.6906 148.306 71.5368 148.335 71.382 148.333C70.5911 148.333 69.6449 147.638 68.9913 147.056C68.8407 146.952 68.7261 146.754 68.6863 146.507C68.6342 146.188 68.7185 145.797 68.89 145.558L74.2528 137.608C74.4015 137.295 74.5853 136.979 74.7804 136.698C75.5722 135.553 76.4654 134.667 77.4353 134.067C77.637 133.881 77.9193 133.706 78.2101 133.593L79.6962 133.018C81.8576 132.183 84.4074 132.838 85.9029 134.606L88.1023 137.205C88.8754 138.125 89.333 139.272 89.4071 140.474C89.4811 141.677 89.1677 142.872 88.5133 143.881C88.1693 144.398 87.7259 144.842 87.2091 145.184L81.1633 151.539C80.9401 151.757 80.6408 151.878 80.3298 151.877ZM78.7651 149.898C79.5579 150.688 80.2323 151.109 80.4965 150.863L86.5612 144.487C86.5871 144.46 86.616 144.436 86.6474 144.415C87.0749 144.14 87.4415 143.78 87.7243 143.356C88.2656 142.519 88.5245 141.529 88.4627 140.533C88.4009 139.536 88.0218 138.587 87.3815 137.824L85.1821 135.225C83.9414 133.76 81.8292 133.216 80.0362 133.909L78.5501 134.484C78.3462 134.567 78.1583 134.685 77.9951 134.833C77.0735 135.41 76.275 136.206 75.558 137.243C75.3745 137.512 75.2112 137.795 75.0693 138.088L69.6657 146.106C69.6249 146.187 69.6107 146.278 69.625 146.368C70.3372 146.984 71.0135 147.381 71.3829 147.381C71.4805 147.381 71.5212 147.353 71.5515 147.322L72.187 146.588C72.2641 146.499 72.3714 146.442 72.4879 146.428C72.6045 146.414 72.7221 146.444 72.8179 146.512C72.9137 146.58 72.9809 146.682 73.0064 146.797C73.032 146.913 73.0141 147.033 72.9561 147.136C72.924 147.206 72.9097 147.282 72.9145 147.359C73.6485 148.006 74.3115 148.393 74.6762 148.393C74.7738 148.393 74.8145 148.365 74.8448 148.334L75.3023 147.804C75.3813 147.711 75.4928 147.653 75.6136 147.64C75.7344 147.628 75.8554 147.663 75.9514 147.737C76.0475 147.812 76.1113 147.921 76.1298 148.042C76.1482 148.163 76.1199 148.286 76.0505 148.386L75.9047 148.603C75.868 148.677 75.8519 148.759 75.8583 148.842C76.58 149.483 77.2534 149.879 77.6209 149.879C77.7185 149.879 77.7592 149.851 77.7895 149.819L78.0131 149.56C78.08 149.484 78.1693 149.431 78.2681 149.41C78.3669 149.388 78.4699 149.399 78.5622 149.441C78.6544 149.482 78.7311 149.552 78.7811 149.64C78.8311 149.729 78.8517 149.831 78.8399 149.932C78.8352 149.988 78.8153 149.937 78.7651 149.898ZM72.2145 132.883C72.0938 132.883 71.9776 132.837 71.8896 132.754L48.5827 110.668C48.0817 110.192 47.4594 110.215 47.0455 110.395C46.6316 110.575 46.1883 111.013 46.1874 111.705L46.1864 112.361C46.1862 112.487 46.1362 112.608 46.0474 112.697C45.9586 112.787 45.8383 112.837 45.7128 112.837C45.6506 112.836 45.5881 112.824 45.5307 112.8C45.4733 112.776 45.4212 112.741 45.3773 112.696C45.3334 112.652 45.2986 112.599 45.2749 112.542C45.2513 112.484 45.2391 112.422 45.2393 112.359L45.2402 111.703C45.237 111.237 45.3713 110.781 45.6261 110.393C45.881 110.004 46.2448 109.701 46.6714 109.52C47.0949 109.332 47.5645 109.275 48.0205 109.356C48.4764 109.436 48.8983 109.652 49.2325 109.974L72.5394 132.061C72.6081 132.126 72.6558 132.211 72.6762 132.304C72.6966 132.397 72.6888 132.494 72.6538 132.583C72.6188 132.671 72.5583 132.747 72.48 132.801C72.4017 132.854 72.3092 132.883 72.2145 132.883Z" fill="#1D2445"/>
<path d="M72.0834 147.87C71.9946 147.87 71.9074 147.845 71.832 147.798C71.7565 147.751 71.6959 147.683 71.657 147.603C71.6181 147.523 71.6025 147.433 71.6121 147.344C71.6217 147.255 71.656 147.171 71.7112 147.101L75.6542 142.014C75.6917 141.963 75.7391 141.919 75.7935 141.887C75.8479 141.854 75.9083 141.833 75.9711 141.824C76.0338 141.816 76.0977 141.82 76.1588 141.836C76.22 141.853 76.2772 141.881 76.3272 141.921C76.3771 141.96 76.4187 142.009 76.4495 142.064C76.4803 142.12 76.4998 142.181 76.5066 142.245C76.5134 142.308 76.5076 142.372 76.4894 142.433C76.4712 142.494 76.441 142.551 76.4006 142.6L72.4575 147.687C72.4131 147.744 72.3563 147.79 72.2915 147.822C72.2267 147.853 72.1555 147.87 72.0834 147.87ZM75.1446 149.317C75.0558 149.318 74.9687 149.293 74.8932 149.246C74.8178 149.198 74.7571 149.131 74.7182 149.05C74.6793 148.97 74.6638 148.88 74.6734 148.791C74.683 148.703 74.7173 148.618 74.7724 148.548L78.2059 144.12C78.2441 144.071 78.2916 144.029 78.3457 143.999C78.3998 143.968 78.4594 143.948 78.5211 143.94C78.5828 143.933 78.6454 143.937 78.7053 143.954C78.7652 143.971 78.8213 143.999 78.8703 144.038C78.9193 144.076 78.9603 144.124 78.9909 144.178C79.0216 144.233 79.0413 144.293 79.0489 144.355C79.0565 144.417 79.0519 144.48 79.0353 144.54C79.0187 144.6 78.9905 144.657 78.9522 144.706L75.5188 149.134C75.4743 149.191 75.4175 149.237 75.3526 149.269C75.2878 149.301 75.2167 149.317 75.1446 149.317ZM77.9748 150.857C77.8858 150.858 77.7986 150.833 77.723 150.786C77.6474 150.739 77.5866 150.671 77.5476 150.591C77.5086 150.51 77.493 150.421 77.5025 150.332C77.5121 150.243 77.5464 150.158 77.6016 150.088L81.0341 145.66C81.0724 145.611 81.1199 145.569 81.174 145.538C81.2281 145.507 81.2877 145.488 81.3495 145.48C81.4112 145.472 81.4739 145.477 81.5339 145.493C81.5938 145.51 81.6499 145.539 81.699 145.577C81.7481 145.615 81.7891 145.663 81.8198 145.718C81.8505 145.772 81.8703 145.832 81.8779 145.894C81.8856 145.956 81.881 146.019 81.8644 146.08C81.8479 146.14 81.8197 146.197 81.7814 146.246L78.3489 150.674C78.3043 150.731 78.2475 150.777 78.1827 150.809C78.1179 150.84 78.0468 150.857 77.9748 150.857Z" fill="#1D2445"/>
</g>
<defs>
<clipPath id="clip0_2019_247">
<rect width="434.97" height="303.871" fill="white"/>
</clipPath>
<clipPath id="clip1_2019_247">
<rect width="299.53" height="148.463" fill="white" transform="translate(144.122 160.618)"/>
</clipPath>
<clipPath id="clip2_2019_247">
<rect width="107.657" height="107.657" fill="white" transform="translate(162.354 45.1466)"/>
</clipPath>
<clipPath id="clip3_2019_247">
<rect width="171.036" height="289.112" fill="white" transform="translate(364.646 18.2323)"/>
</clipPath>
<clipPath id="clip4_2019_247">
<rect width="87.6885" height="336.863" fill="white" transform="translate(1.73633 30.3871)"/>
</clipPath>
</defs>
</svg>
