<svg width="461" height="480" viewBox="0 0 461 480" fill="none" xmlns="http://www.w3.org/2000/svg">
<g clip-path="url(#clip0_2019_246)">
<path d="M37.0479 406.78L53.976 420.663L75.4831 438.295C76.7319 438.295 77.8419 438.156 78.8132 438.156C81.4496 438.017 83.3921 438.017 83.5309 438.017L83.3921 437.323L83.1146 435.241L80.8946 418.581L78.397 399.838L77.5644 399.699C76.3156 399.561 75.0668 400.394 74.6506 401.643L73.818 405.253L67.019 403.309C62.4401 401.921 58.9712 398.172 58.1387 393.313L56.8899 385.955C56.7511 385.122 55.9186 384.567 55.0861 384.705C54.8085 384.705 54.3923 384.983 54.2535 385.261L45.9282 394.701L40.1005 401.365L39.5454 401.921L37.0479 406.78Z" fill="white"/>
<path d="M75.4828 438.989C75.344 438.989 75.2053 438.989 75.0665 438.85L36.6313 407.474C36.3538 407.335 36.3538 406.919 36.4925 406.641L38.7126 401.782C38.7126 401.782 38.7126 401.643 38.8514 401.643L53.5594 384.983C54.392 384.011 55.7795 384.011 56.7508 384.844C57.1671 385.122 57.4446 385.677 57.4446 386.094L58.6934 393.452C59.5259 397.894 62.7173 401.643 67.1575 402.893L73.2627 404.697L73.9565 401.782C74.3727 400.116 75.899 399.144 77.5641 399.283L78.3966 399.422C78.6741 399.422 78.9517 399.699 78.9517 399.977L84.2244 438.156C84.2244 438.295 84.2244 438.572 84.0856 438.711C83.9468 438.85 83.8081 438.989 83.5306 438.989C83.2531 438.989 81.588 438.989 78.8129 439.128L75.4828 438.989ZM37.8801 406.641L75.7603 437.601L78.8129 437.462C80.478 437.462 82.0043 437.323 82.8368 437.323L77.7029 400.393H77.4253C76.4541 400.255 75.6215 400.949 75.344 401.782L74.5115 405.391C74.5115 405.53 74.3727 405.669 74.234 405.808C74.0952 405.947 73.8177 405.947 73.679 405.808L66.8799 403.864C62.0235 402.476 58.2771 398.45 57.4446 393.313L56.1958 385.955C56.057 385.538 55.6408 385.122 55.2245 385.261C55.0857 385.261 54.8082 385.4 54.6695 385.538L39.9614 402.059L37.8801 406.641Z" fill="#1D2445"/>
<path d="M40.3778 415.804L56.6122 428.715L68.9614 438.572C71.0428 438.434 73.4016 438.434 75.4829 438.295C76.7317 438.295 77.8418 438.156 78.8131 438.156L60.9136 423.856C60.3586 423.44 60.0811 422.884 59.9423 422.19C59.5261 418.858 57.7222 415.804 55.0859 413.583L50.507 409.973L39.684 401.365L39.4065 401.088C38.7128 400.532 37.7415 400.671 37.1864 401.365C37.0477 401.504 36.9089 401.782 36.9089 401.921L36.3539 404.281C35.3826 408.585 36.9089 413.027 40.3778 415.804Z" fill="#1D2445"/>
<path d="M68.9615 439.267C68.8228 439.267 68.684 439.267 68.5453 439.128L39.9616 416.359C36.354 413.444 34.6889 408.724 35.799 404.281L36.354 401.921C36.6315 400.671 37.8803 399.977 39.1291 400.255L39.9616 400.671L40.2392 400.949L55.5022 413.166C58.2774 415.387 60.0812 418.581 60.6362 422.19C60.6362 422.746 60.9137 423.162 61.33 423.44L79.2294 437.74C79.5069 438.017 79.6457 438.434 79.3682 438.711C79.2294 438.85 79.0907 438.989 78.8131 438.989L68.9615 439.267ZM40.7942 415.249L69.1003 437.878L76.8706 437.601L60.3587 424.412C59.6649 423.856 59.2486 423.162 59.1099 422.19C58.6936 418.997 57.0286 416.082 54.531 414.138L38.9904 401.643C38.7128 401.504 38.4353 401.365 38.1578 401.504C37.8803 401.643 37.6028 401.782 37.6028 402.06L37.0478 404.42C36.2152 408.446 37.6028 412.75 40.7942 415.249Z" fill="#1D2445"/>
<path d="M53.1436 418.303L57.7225 432.603L59.6651 438.573L83.3922 437.184L100.875 436.212L101.153 436.074L104.344 433.713L106.148 432.325C108.507 430.52 109.062 427.049 107.258 424.689C106.287 423.44 104.899 422.607 103.373 422.468L91.44 421.635C83.9473 421.08 77.0095 417.331 72.5693 411.222L67.1579 404.003L62.7177 407.196C61.6076 407.89 61.3301 409.418 61.8851 410.528L63.689 413.86L57.3062 417.053C56.0574 417.748 54.6699 418.164 53.1436 418.303Z" fill="white"/>
<path d="M59.6653 439.267C59.3878 439.267 59.1103 439.128 58.9715 438.85L52.45 418.581C52.3112 418.164 52.5887 417.886 52.8663 417.748H53.005C54.3926 417.609 55.7801 417.192 57.0289 416.637L62.7179 413.721L61.1916 411.084C60.359 409.556 60.7753 407.752 62.1629 406.78L66.603 403.587C66.8806 403.309 67.2968 403.448 67.5743 403.725L72.9858 410.945C77.426 416.776 84.0862 420.524 91.4403 421.08L103.373 421.913C106.703 422.19 109.34 425.106 109.062 428.438C108.923 430.243 108.091 431.77 106.565 432.88L101.292 436.907C101.153 437.045 101.014 437.045 100.876 437.045L59.6653 439.267ZM54.1151 418.858L60.2203 437.878L100.876 435.518L106.01 431.77C108.091 430.243 108.507 427.188 106.981 425.106C106.148 423.995 104.9 423.301 103.512 423.162L91.579 422.329C83.8087 421.774 76.7322 417.886 72.1533 411.639L67.1581 404.975L63.2729 407.752C62.4404 408.307 62.3016 409.418 62.7179 410.251L64.5217 413.583C64.6605 413.86 64.5217 414.277 64.2442 414.554L57.8615 417.748C56.6127 418.164 55.3639 418.581 54.1151 418.858Z" fill="#1D2445"/>
<path d="M68.1289 436.212L68.5452 442.599L92.5499 440.933C93.3824 440.933 94.3537 440.655 95.0475 440.1L100.875 436.212L101.153 436.073L104.899 433.574L68.1289 436.212Z" fill="#1D2445"/>
<path d="M68.5456 443.293C68.1293 443.293 67.8518 443.015 67.8518 442.599L67.4355 436.212C67.4355 435.796 67.7131 435.518 68.1293 435.518L104.9 433.019C105.177 433.019 105.455 433.158 105.593 433.436C105.732 433.713 105.593 434.13 105.316 434.269L95.4641 440.794C94.6316 441.349 93.6603 441.627 92.689 441.766L68.5456 443.293ZM68.8231 436.768L69.1006 441.766L92.4115 440.238C93.244 440.238 93.9378 439.961 94.6316 439.544L102.263 434.546L68.8231 436.768Z" fill="#1D2445"/>
<path d="M88.5255 455.649L64.7983 457.176L59.1094 436.212L83.1141 437.323L86.3054 442.46C87.2767 443.987 87.8317 445.653 87.8317 447.319L88.5255 455.649Z" fill="#99644C"/>
<path d="M136.812 300.434L86.3055 166.46L56.3343 159.38L56.0568 154.798L37.1861 154.937L34.6885 154.382V154.937L5.54982 155.076L3.32974 160.491C-0.555415 170.903 -0.277904 182.426 4.43978 192.561L7.35364 198.808L30.6645 297.935L29.9708 341.667C29.9708 344.583 30.387 347.359 31.2196 349.997L45.6501 394.701L50.5066 409.973L53.1429 418.303L53.9755 420.802L56.4731 428.715L57.7218 432.603L59.6644 438.572L59.8032 438.85C59.8032 438.85 63.9658 438.711 68.8223 438.434C70.9036 438.295 73.2625 438.295 75.3438 438.156C76.5926 438.156 77.7026 438.017 78.6739 438.017C81.3103 437.878 83.2528 437.878 83.3916 437.878L83.2528 437.184L82.9753 435.102L80.7552 418.442L78.6739 402.892L134.731 319.315C138.477 313.762 139.171 306.681 136.812 300.434ZM83.2528 313.207C82.5591 314.456 82.004 315.706 81.449 317.094L71.0424 346.249L69.7936 336.669L65.9084 289.189H65.7697L63.5496 258.09L92.2719 297.241L83.2528 313.207Z" fill="white"/>
<path d="M59.8035 439.544C59.526 439.544 59.2485 439.406 59.1097 439.128L49.8131 410.112L30.5261 350.275C29.6936 347.498 29.1386 344.583 29.2773 341.667L29.9711 298.074L6.6602 198.947L3.88509 192.839C-0.832592 182.565 -1.1101 170.764 2.77505 160.213L4.99513 154.798C5.13389 154.521 5.4114 154.382 5.68891 154.382L34.1338 154.243C34.1338 154.104 34.2725 153.827 34.4113 153.827C34.55 153.688 34.8275 153.688 34.9663 153.688L37.4639 154.243L56.1959 154.104C56.6121 154.104 56.8897 154.382 56.8897 154.798L57.1672 158.825L86.5833 165.766C86.8608 165.766 86.9996 166.044 87.1383 166.183L137.784 300.156C140.282 306.681 139.449 313.901 135.564 319.732L79.7843 403.17L84.502 438.017C84.502 438.156 84.502 438.434 84.3632 438.573C84.2245 438.711 84.0857 438.85 83.8082 438.85C83.5307 438.85 82.0044 438.85 79.0905 438.989H78.6743C77.8417 438.989 76.8704 438.989 75.7604 439.128L59.8035 439.544ZM5.96642 155.77L4.02385 160.768C0.138696 171.042 0.554962 182.287 5.13389 192.283L8.04775 198.531L31.4974 297.657V297.796L30.8036 341.528C30.8036 344.305 31.2199 347.082 32.0524 349.72L60.4973 438.156L75.6216 437.601C76.5929 437.601 77.5642 437.462 78.5355 437.462H78.9518C80.6168 437.462 82.0044 437.323 82.9757 437.323L78.258 403.031C78.258 402.893 78.258 402.754 78.3967 402.615L134.315 319.038C137.923 313.623 138.755 306.82 136.396 300.712L85.8895 167.155L56.3346 160.213C56.0571 160.213 55.7796 159.935 55.7796 159.519L55.5021 155.631L37.3251 155.77H37.1864L35.3826 155.354C35.2438 155.631 34.9663 155.77 34.6888 155.77H5.96642ZM71.0427 346.943C70.6264 346.943 70.3489 346.665 70.3489 346.388L69.1001 336.808L65.215 289.744C65.0762 289.605 65.0762 289.466 65.0762 289.327L62.7174 258.229C62.7174 257.812 62.9949 257.535 63.4112 257.535C63.6887 257.535 63.8274 257.674 63.9662 257.812L92.6885 296.963C92.8273 297.241 92.8273 297.518 92.6885 297.657L83.8082 313.484C83.1144 314.734 82.5594 315.983 82.1431 317.233L71.7365 346.388C71.5977 346.804 71.3202 346.943 71.0427 346.943ZM66.325 288.772C66.4638 288.911 66.4638 289.05 66.4638 289.189L70.3489 336.669L71.3202 343.472L80.7556 316.955C81.3106 315.567 81.8656 314.178 82.5594 312.929L91.1622 297.38L64.1049 260.45L66.325 288.772ZM88.8034 468.838L65.77 468.699C64.5212 468.699 63.4112 468.005 62.8561 466.894L60.4973 461.063L93.9373 461.202L91.5785 467.033C91.1622 468.144 90.0522 468.838 88.8034 468.838Z" fill="#1D2445"/>
<path d="M88.8038 469.532L65.7704 469.393C64.2441 469.393 62.8565 468.56 62.3015 467.172L59.9427 461.341C59.8039 460.925 59.9427 460.647 60.3589 460.508H60.6364L94.0765 460.647C94.4928 460.647 94.7703 460.925 94.7703 461.341V461.619L92.4114 467.45C91.7176 468.699 90.3301 469.532 88.8038 469.532ZM61.6077 461.758L63.5503 466.756C63.9666 467.589 64.7991 468.144 65.7704 468.144L88.8038 468.283C89.7751 468.283 90.6076 467.866 91.0239 467.033L92.9664 462.174L61.6077 461.758Z" fill="#1D2445"/>
<path d="M93.3827 448.152L86.5837 437.323C86.5837 437.184 86.4449 437.184 86.3062 437.045L82.0047 434.685L81.0334 429.548C80.6172 427.744 79.0909 426.494 77.2871 426.355H63.4115C62.579 426.355 61.7464 426.633 61.1914 427.327C60.6364 428.021 60.4977 428.854 60.6364 429.826L61.7464 435.241L58.5551 437.045C58.4163 437.184 58.2776 437.323 58.1388 437.601L57.1675 443.432C56.4737 447.874 56.7513 452.456 58.2776 456.76L60.0814 461.896C60.2201 462.174 60.4976 462.313 60.7752 462.313L92.2726 462.452C93.6602 462.452 94.909 461.341 94.909 459.814L95.0477 454.261C95.1865 452.178 94.6315 450.096 93.3827 448.152Z" fill="white"/>
<path d="M92.4112 463.146L60.9137 463.007C60.3587 463.007 59.8037 462.591 59.6649 462.035L57.8611 456.898C56.3348 452.456 55.9185 447.735 56.6123 443.154L57.5836 437.323C57.7224 436.906 57.8611 436.49 58.2774 436.351L61.0525 434.824L60.0812 429.826C59.8037 428.715 60.0812 427.744 60.775 426.772C61.4688 425.939 62.44 425.522 63.5501 425.522H77.4256C79.6457 425.661 81.4495 427.188 81.8658 429.271L82.8371 434.13L86.861 436.351C86.9997 436.49 87.2773 436.629 87.416 436.768L94.215 447.597C95.4638 449.54 96.0188 451.762 96.0188 453.983L95.8801 459.536C95.7413 461.619 94.215 463.146 92.4112 463.146ZM63.4113 427.049C62.7176 427.049 62.1625 427.327 61.7463 427.744C61.33 428.299 61.1912 428.993 61.33 429.548L62.44 434.963C62.44 435.24 62.3013 435.518 62.1625 435.657L58.9712 437.462L57.9999 443.293C57.3061 447.597 57.7224 452.178 59.1099 456.343L60.9137 461.48L92.4112 461.619C93.5213 461.619 94.3538 460.786 94.3538 459.675L94.4925 454.122C94.4925 452.178 93.9375 450.096 92.9662 448.43L86.1672 437.601L81.8658 435.241C81.727 435.102 81.5883 434.963 81.5883 434.824L80.617 429.687C80.3395 428.16 78.9519 427.188 77.4256 427.049H63.4113Z" fill="#1D2445"/>
<path d="M74.928 457.315H79.6456C81.5882 457.315 83.2533 458.981 83.2533 460.925C83.2533 462.868 81.5882 464.534 79.6456 464.534H74.928C72.9854 464.534 71.3203 462.868 71.3203 460.925C71.3203 458.842 72.9854 457.315 74.928 457.315Z" fill="#1D2445"/>
<path d="M79.7843 465.228H74.9278C72.569 465.228 70.6264 463.285 70.6264 460.925C70.6264 458.564 72.569 456.621 74.9278 456.621H79.6455C82.0044 456.621 83.9469 458.564 83.9469 460.925C83.9469 463.285 82.1431 465.228 79.7843 465.228ZM74.9278 458.009C73.4015 458.009 72.014 459.259 72.014 460.925C72.014 462.452 73.2628 463.84 74.9278 463.84H79.6455C81.1718 463.84 82.5594 462.591 82.5594 460.925C82.5594 459.397 81.3106 458.009 79.6455 458.009H74.9278ZM90.7459 180.76L4.99512 156.603C4.99512 156.603 13.5979 134.39 17.2056 127.448C23.3108 115.648 36.0763 101.626 46.6217 93.4344L81.8656 65.9455C85.3345 63.1689 90.1909 63.1689 93.7986 65.6679L152.076 107.457L90.7459 180.76Z" fill="#1D2445"/>
<path d="M90.7456 181.454H90.6068L4.85599 157.297C4.43973 157.159 4.30097 156.742 4.43973 156.464C4.57848 156.187 13.0426 134.112 16.6502 127.31C23.3105 114.537 36.631 100.515 46.2051 93.0179L81.449 65.529C85.1954 62.6136 90.3293 62.4747 94.2145 65.2514L152.492 107.04C152.769 107.318 152.908 107.734 152.63 108.012L91.3006 181.316C91.1619 181.454 91.0231 181.454 90.7456 181.454ZM5.96604 156.187L90.4681 180.066L150.965 107.734L93.3819 66.2232C90.0518 63.8631 85.4729 63.8631 82.2815 66.5009L47.0376 93.9897C37.4635 101.487 24.2817 115.092 17.7602 127.726C14.7076 133.835 7.49235 152.299 5.96604 156.187Z" fill="#1D2445"/>
<path d="M165.535 127.032L166.09 111.622C166.784 95.2393 159.43 79.69 146.526 69.694L141.808 66.0844C123.909 52.34 98.9326 52.6176 81.4494 66.6397L60.0811 83.855L109.478 109.817L165.535 127.032Z" fill="#1D2445"/>
<path d="M165.536 127.726H165.397L109.34 110.511L59.804 84.4103C59.6652 84.2715 59.5265 84.1326 59.3877 83.855C59.3877 83.5773 59.5265 83.4385 59.6652 83.2996L81.0335 66.0844C98.7942 51.7846 124.186 51.5069 142.225 65.5291L146.942 69.1387C159.985 79.2735 167.478 95.1004 166.784 111.622L166.229 127.032C166.229 127.448 165.952 127.726 165.536 127.726ZM61.3303 83.7161L109.756 109.261L164.842 126.06L165.397 111.622C166.091 95.5169 158.875 80.1065 146.11 70.2494L141.531 66.6397C123.909 53.0341 99.3492 53.3118 82.0048 67.195L61.3303 83.7161Z" fill="#1D2445"/>
<path d="M187.597 162.434C176.774 167.849 163.592 163.406 158.32 152.577L138.2 112.038C134.037 103.569 137.506 93.2956 145.97 89.1306L148.329 88.02C153.602 85.3821 159.985 87.6035 162.621 92.8791L193.008 154.104C194.257 156.742 193.286 159.796 190.65 161.185L187.597 162.434Z" fill="#1D2445"/>
<path d="M177.885 165.489C169.282 165.489 161.373 160.629 157.627 152.855L137.646 112.316C133.344 103.43 136.952 92.7402 145.694 88.4364L148.052 87.3257C153.741 84.5491 160.54 86.7704 163.316 92.4625L193.703 153.688C195.091 156.603 193.98 160.213 191.067 161.601L188.153 162.99C184.823 164.656 181.354 165.489 177.885 165.489ZM153.048 87.4646C151.521 87.4646 149.995 87.8811 148.607 88.5752L146.249 89.6859C138.062 93.712 134.732 103.569 138.756 111.76L158.875 152.299C164.148 162.851 176.775 167.016 187.32 161.879L190.234 160.491C192.454 159.38 193.425 156.603 192.315 154.382L161.928 93.0179C160.818 90.6577 158.737 88.8529 156.1 88.0199C155.129 87.6034 154.158 87.4646 153.048 87.4646ZM146.526 24.5734C145.971 16.7987 155.545 9.71826 167.894 8.88526C178.44 8.05227 187.736 11.9396 190.65 17.9094C191.205 19.1589 190.65 20.5472 189.402 21.1025C189.124 21.2414 188.847 21.2414 188.569 21.3802L146.526 24.5734Z" fill="#1D2445"/>
<path d="M147.359 13.4668C146.804 6.94166 154.99 0.833023 165.536 2.63676e-05C174.555 -0.694137 182.464 2.63785 184.823 7.63582C185.239 8.74649 184.823 9.85715 183.851 10.4125C183.574 10.5513 183.435 10.5513 183.158 10.5513L147.359 13.4668Z" fill="#1D2445"/>
<path d="M177.33 26.9335L179.827 55.9496C179.966 58.7262 177.885 61.0864 174.971 61.2252C174.416 61.2252 173.861 61.2252 173.444 61.0864L142.502 52.8952L177.33 26.9335Z" fill="#C78982"/>
<path d="M158.181 10.2736H158.875C168.727 9.71827 177.052 17.3541 177.607 27.0724L177.885 32.0703L154.435 33.3198L153.464 15.6881C153.325 12.7726 155.406 10.4124 158.181 10.2736Z" fill="#C78982"/>
<path d="M149.717 37.4848L169.281 56.7825L130.846 95.378C130.291 95.9334 129.32 95.9334 128.765 95.378C128.487 95.1004 128.349 94.6839 128.349 94.2674V58.865L149.717 37.4848Z" fill="white"/>
<path d="M129.875 96.4887C129.598 96.4887 129.32 96.4887 129.043 96.3499C128.21 96.0722 127.655 95.2392 127.655 94.4062L127.517 59.0039C127.517 58.8651 127.655 58.5874 127.655 58.4486L149.024 36.9295C149.301 36.6518 149.717 36.6518 149.995 36.9295L169.559 56.2272C169.698 56.3661 169.698 56.5049 169.698 56.7826C169.698 56.9214 169.559 57.1991 169.559 57.3379L131.402 95.9334C130.985 96.3499 130.43 96.4887 129.875 96.4887ZM128.904 59.2816L129.043 94.4062C129.043 94.8227 129.459 95.2392 129.875 95.2392C130.153 95.2392 130.292 95.1004 130.43 94.9616L168.172 56.7826L149.717 38.4567L128.904 59.2816Z" fill="#1D2445"/>
<path d="M162.97 29.4173L177.658 28.6426L178.644 47.36L163.955 48.1333L162.97 29.4173Z" fill="#C78982"/>
<path d="M183.296 39.4285L178.994 35.5412L178.439 28.5995C177.329 15.2716 165.674 5.27562 152.353 6.24745L145.416 6.80278C137.368 7.49695 131.54 14.4386 132.095 22.352L133.066 34.5693C133.066 34.847 133.205 34.9858 133.344 35.1247L162.344 55.2554C162.483 55.3942 162.621 55.3942 162.76 55.3942L179.688 54.0059C180.105 54.0059 180.382 53.5894 180.382 53.3117L179.688 45.1206L181.492 44.9818C183.296 44.8429 184.545 43.3158 184.267 41.511C184.267 40.678 183.851 39.9838 183.296 39.4285Z" fill="white"/>
<path d="M162.76 56.0884C162.344 56.0884 162.066 55.9496 161.927 55.8107L132.928 35.8188C132.65 35.5412 132.373 35.2635 132.373 34.847L131.401 22.6297C130.707 14.2998 137.09 6.94163 145.416 6.24746L152.353 5.69213C166.09 4.58147 178.162 14.9939 179.133 28.7384L179.688 35.4023L183.851 39.012C184.545 39.7061 184.961 40.5391 185.1 41.511C185.238 42.4828 184.961 43.5935 184.267 44.2876C183.573 45.1206 182.741 45.5371 181.631 45.6759L180.382 45.8148L180.937 53.3117C180.937 54.0059 180.382 54.7001 179.688 54.8389L162.76 56.0884ZM154.157 6.94163C153.602 6.94163 152.908 6.94162 152.353 7.08046L145.416 7.63579C137.784 8.19112 132.095 14.8551 132.789 22.4909L133.76 34.7082L162.76 54.8389L179.688 53.5894L178.994 45.3983C178.994 44.9818 179.272 44.7041 179.549 44.7041L181.353 44.5653C182.047 44.5653 182.602 44.1488 183.018 43.7323C183.435 43.177 183.573 42.6216 183.573 41.9275C183.573 41.3721 183.157 40.678 182.741 40.4003L178.439 36.6518C178.301 36.513 178.162 36.3742 178.162 36.2353L177.607 29.2937C176.774 16.3822 166.368 6.94163 154.157 6.94163Z" fill="#1D2445"/>
<path d="M159.846 38.8731L160.263 44.1488C160.679 49.0079 163.87 53.0341 168.449 54.7001C168.172 50.9516 170.947 47.6196 174.693 47.3419L179.133 46.9254L179.827 56.3661C180.105 59.1427 178.023 61.5029 175.248 61.6417C174.693 61.6417 173.999 61.6417 173.444 61.5029L160.263 57.4767C158.32 56.9214 156.933 55.1166 156.794 53.1729L155.406 35.2635C157.626 34.9858 159.708 36.6518 159.846 38.8731Z" fill="#1D2445"/>
<path d="M174.554 55.1166L178.023 55.6719C178.856 55.8108 179.549 55.2554 179.688 54.4224V54.1448L179.411 49.9798L176.219 50.2575C174.415 50.3963 173.167 51.9235 173.305 53.5894C173.305 54.4224 173.86 54.9778 174.554 55.1166Z" fill="white"/>
<path d="M178.301 56.3661H178.023L174.554 55.8108C173.444 55.6719 172.612 54.8389 172.612 53.7283C172.473 51.6458 173.999 49.7021 176.081 49.5633L179.272 49.2856C179.411 49.2856 179.688 49.2856 179.827 49.4245C179.966 49.5633 180.104 49.7021 180.104 49.841L180.382 54.0059C180.521 55.1166 179.549 56.2273 178.439 56.3661H178.301ZM174.693 54.4224L178.162 54.9778C178.439 54.9778 178.578 54.9778 178.717 54.8389C178.856 54.7001 178.994 54.4224 178.994 54.2836L178.717 50.8128L176.219 50.9516C174.832 51.0905 173.86 52.2011 173.999 53.5894C173.999 54.0059 174.277 54.2836 174.693 54.4224ZM139.033 53.1729L150.272 57.1991L146.664 10.9678C146.387 8.19115 144.028 6.24749 141.392 6.38632L139.172 6.52515C129.736 7.21932 122.521 15.5493 123.354 25.1287C123.354 25.9617 123.492 26.7947 123.77 27.7666L126.406 39.1508C127.932 45.676 132.65 50.9516 139.033 53.1729ZM152.353 33.7364L174.138 32.0704L174.415 28.4607L152.076 30.1267L152.353 33.7364Z" fill="#1D2445"/>
<path d="M136.674 12.9115L153.879 11.5231L156.655 47.2031C157.071 52.6176 153.047 57.3379 147.636 57.7544L140.281 58.3098L136.674 12.9115Z" fill="#1D2445"/>
<path d="M147.775 8.88531L168.033 7.35815L169.004 18.8813C169.421 24.2957 165.397 29.0161 159.985 29.4326L149.578 30.2656L147.775 8.88531ZM174.693 29.8491L175.109 37.0684C175.109 37.0684 175.109 37.2072 175.248 37.2072L179.966 36.7907C179.966 36.7907 180.105 36.7907 180.105 36.6519L179.55 29.5714C179.55 29.5714 179.55 29.4326 179.411 29.4326L174.693 29.8491ZM174.554 28.4607L179.272 28.0442C180.105 28.0442 180.798 28.5996 180.798 29.4326L181.353 36.513C181.353 37.346 180.798 38.0402 179.966 38.0402L175.248 38.4567C174.416 38.4567 173.722 37.9014 173.722 37.0684L173.167 29.9879C173.167 29.1549 173.861 28.4607 174.554 28.4607ZM141.531 36.7907C140.976 29.0161 130.43 23.6016 117.942 24.5734C107.397 25.4064 98.794 30.682 96.8514 36.9295C96.4352 38.179 97.2677 39.5673 98.5165 39.9838C98.794 40.1227 99.0715 40.1227 99.349 40.1227L141.531 36.7907Z" fill="#1D2445"/>
<path d="M150.689 46.0924C150.134 38.8731 140.282 33.7363 128.765 34.7082C118.914 35.4023 111.005 40.2615 109.201 46.2313C108.923 47.4808 109.617 48.7303 110.727 49.0079C111.005 49.1468 111.282 49.1468 111.56 49.1468L150.689 46.0924Z" fill="#1D2445"/>
<path d="M145.693 52.3399C148.746 52.0623 151.105 49.4244 150.827 46.2313C150.688 44.01 149.301 42.2051 147.22 41.3721C143.889 40.1226 140.282 39.5673 136.674 39.845C128.071 40.5391 121.272 45.2595 119.746 51.2293C119.33 52.4788 120.024 53.7282 121.272 54.0059C121.411 54.0059 121.689 54.1447 121.827 54.1447L145.693 52.3399Z" fill="#1D2445"/>
<path d="M149.162 57.7544C151.521 57.6156 153.186 55.5331 153.047 53.3118C152.909 51.6458 151.937 50.2575 150.411 49.7021C147.913 48.7303 145.277 48.3138 142.641 48.5915C136.397 49.1468 131.263 52.6176 130.153 56.9214C129.875 57.7544 130.43 58.7263 131.263 59.0039C131.402 59.0039 131.54 59.0039 131.679 59.1427L149.162 57.7544ZM146.387 23.6016C145.832 15.8269 135.287 10.4125 122.799 11.3843C112.253 12.2173 103.65 17.4929 101.708 23.7404C101.292 24.9899 102.124 26.3782 103.373 26.7947C103.65 26.9336 103.928 26.9336 104.205 26.9336L146.387 23.6016Z" fill="#1D2445"/>
<path d="M164.841 12.7726C164.286 4.99797 153.741 -0.416507 141.253 0.555322C130.707 1.38832 122.243 6.52513 120.301 12.9114C119.884 14.1609 120.717 15.5493 121.966 15.9658C122.243 16.1046 122.521 16.1046 122.798 16.1046L164.841 12.7726Z" fill="#1D2445"/>
<path d="M256.42 86.4928C256.281 86.4928 256.142 86.3539 256.142 86.2151C256.142 86.2151 252.534 83.9938 252.534 84.1326C252.257 83.9938 251.147 83.2996 250.731 83.0219C250.314 82.7443 249.898 82.6054 249.482 82.4666C248.233 82.0501 245.18 81.3559 243.932 81.2171C242.822 81.0783 241.85 81.0783 240.74 81.3559C238.936 81.6336 232.554 82.8831 232.554 82.8831L232.692 91.2131L237.549 88.2976L241.712 94.9615C241.712 94.9615 241.85 96.211 242.405 98.4324C242.96 100.654 246.29 102.042 246.29 99.9595L246.152 96.6275V95.378C246.152 94.9615 246.013 94.5451 245.874 94.1286C245.597 93.4344 245.18 92.1849 244.764 91.0742L246.013 92.1849C246.013 92.1849 246.707 93.4344 247.817 95.6557C248.927 97.877 253.089 98.1547 252.396 96.0722L251.147 92.7402C250.869 92.1849 250.869 91.9072 250.592 91.2131C250.453 90.7966 250.176 90.2412 249.898 89.9636C249.343 89.2694 248.511 88.0199 247.539 86.9092L249.066 87.1869L251.702 88.4364C252.396 88.7141 253.089 88.8529 253.783 88.8529C255.865 88.9917 257.252 87.3257 256.42 86.4928Z" fill="#C78982"/>
<path d="M256.42 86.4928C256.281 86.4928 256.142 86.3539 256.142 86.2151C256.142 86.2151 252.534 83.9938 252.534 84.1326C252.257 83.9938 251.147 83.2996 250.731 83.0219C250.314 82.7443 249.898 82.6054 249.482 82.4666C248.233 82.0501 245.18 81.3559 243.932 81.2171C242.822 81.0783 241.85 81.0783 240.74 81.3559C238.936 81.6336 232.554 82.8831 232.554 82.8831L232.692 91.2131L237.549 88.2976L241.712 94.9615C241.712 94.9615 241.85 96.211 242.405 98.4324C242.96 100.654 246.29 102.042 246.29 99.9595L246.152 96.6275V95.378C246.152 94.9615 246.013 94.5451 245.874 94.1286C245.597 93.4344 245.18 92.1849 244.764 91.0742L246.013 92.1849C246.013 92.1849 246.707 93.4344 247.817 95.6557C248.927 97.877 253.089 98.1547 252.396 96.0722L251.147 92.7402C250.869 92.1849 250.869 91.9072 250.592 91.2131C250.453 90.7966 250.176 90.2412 249.898 89.9636C249.343 89.2694 248.511 88.0199 247.539 86.9092L249.066 87.1869L251.702 88.4364C252.396 88.7141 253.089 88.8529 253.783 88.8529C255.865 88.9917 257.252 87.3257 256.42 86.4928Z" fill="#1D2445"/>
<path d="M245.32 101.764C243.655 101.626 242.128 100.376 241.712 98.71C241.296 96.9052 241.157 95.7945 241.018 95.3781L237.272 89.4083L232.97 91.9072C232.693 92.0461 232.277 92.0461 231.999 91.6296C231.999 91.4907 231.86 91.3519 231.86 91.3519L231.722 83.0219C231.722 82.7443 231.999 82.3278 232.277 82.3278C232.554 82.3278 238.798 80.9395 240.463 80.6618C241.573 80.3841 242.683 80.3841 243.793 80.523C245.181 80.8006 248.234 81.4948 249.482 81.9113C250.037 82.0501 250.454 82.189 250.87 82.4666C251.286 82.7443 252.396 83.2996 252.674 83.5773C253.09 83.8549 254.061 84.4103 256.281 85.6598C256.281 85.6598 256.42 85.7986 256.559 85.7986C256.698 85.7986 256.698 85.9374 256.698 85.9374C257.114 86.3539 257.253 87.0481 256.975 87.6034C256.281 88.9917 254.894 89.8247 253.506 89.8247C252.674 89.8247 251.841 89.6859 251.147 89.4083L249.066 88.4364C249.482 88.9918 249.899 89.4082 250.176 89.8247C250.454 90.2412 250.731 90.7966 251.009 91.3519C251.147 91.6296 251.286 91.9072 251.286 92.1849C251.425 92.4626 251.425 92.6014 251.564 92.8791L252.812 96.2111C253.229 97.0441 252.813 98.0159 251.98 98.2935C250.037 98.8489 247.956 98.0159 246.985 96.2111C246.846 95.9334 246.707 95.7946 246.569 95.5169V96.7664L246.707 100.098C246.846 100.931 246.291 101.626 245.458 101.764H245.32ZM237.411 87.7423C237.688 87.7423 237.827 87.8811 237.966 88.0199L242.128 94.6839C242.128 94.8227 242.267 94.8227 242.267 94.9616C242.267 94.9616 242.406 96.2111 242.961 98.4324C243.238 99.2654 243.932 99.9595 244.765 100.376C245.181 100.515 245.32 100.515 245.458 100.515V100.237L245.32 97.1829V97.0441C245.32 96.7664 245.181 96.0722 245.181 95.7946C245.181 95.5169 245.042 95.1004 244.903 94.8227C244.626 94.1286 244.21 93.1567 243.793 92.0461L243.655 91.7684C243.516 91.4907 243.655 91.0742 243.932 90.9354C244.21 90.7966 244.487 90.7966 244.765 90.9354L246.013 92.0461L246.152 92.1849C246.152 92.1849 246.846 93.4344 247.956 95.6557C248.65 96.7664 249.899 97.3217 251.147 97.0441C251.286 97.0441 251.425 96.9052 251.286 96.6275L250.037 93.2956C249.899 93.0179 249.899 92.8791 249.76 92.6014C249.621 92.3237 249.621 92.1849 249.482 91.7684C249.344 91.3519 249.205 90.9354 248.927 90.6577C248.372 89.9636 247.54 88.7141 246.569 87.6034C246.43 87.3258 246.43 87.0481 246.569 86.7704C246.707 86.4928 246.985 86.3539 247.262 86.4928L248.789 86.7704H248.927L251.564 88.0199C252.119 88.2976 252.674 88.4364 253.229 88.2976C254.2 88.2976 255.033 87.7423 255.588 87.0481V86.9093C255.588 86.9093 255.449 86.7704 255.31 86.7704C254.061 86.0763 252.119 84.8268 251.841 84.6879C251.564 84.5491 250.454 83.8549 250.037 83.7161C249.76 83.5773 249.344 83.2996 248.927 83.2996C247.679 82.8831 244.626 82.1889 243.377 82.0501C242.406 81.9113 241.435 81.9113 240.463 82.1889C238.937 82.3278 234.358 83.2996 232.832 83.7161L232.97 90.3801L236.856 88.1588C237.272 87.7423 237.411 87.7423 237.411 87.7423Z" fill="#1D2445"/>
<path d="M254.2 76.4968H254.061L250.592 75.525C249.482 75.2473 248.511 74.9697 247.817 74.692C247.401 74.5532 246.846 74.5532 246.429 74.5532C245.042 74.5532 241.989 74.692 240.74 74.8308C239.63 74.8308 238.659 75.2473 237.688 75.8027L226.587 82.3278C224.784 83.4385 223.674 85.3821 223.812 87.4646L224.506 98.8489V100.515L207.023 113.01H207.162L182.463 130.225L173.86 136.75L188.013 154.798C189.401 156.603 192.176 157.02 193.98 155.493L194.257 155.215L196.755 152.855L235.606 113.287C236.578 112.454 237.549 111.483 238.382 110.511C239.63 109.4 240.602 108.151 241.434 106.762C241.85 106.207 242.128 105.513 242.406 104.819C243.654 100.515 241.295 95.3781 244.209 91.4908C247.123 87.6034 247.401 87.4646 250.453 83.7161C251.563 82.189 251.702 81.0783 251.286 80.2453C251.563 80.2453 251.98 80.1065 252.257 79.9676C254.338 79.1346 255.171 77.0521 254.2 76.4968ZM239.214 86.6316L237.41 88.1588C235.606 89.6859 232.276 88.4364 233.386 87.3258C234.496 86.2151 241.573 79.69 241.573 79.69L247.262 79.4123H247.401C247.123 79.5511 246.984 79.69 246.707 79.9676L239.214 86.6316Z" fill="white"/>
<path d="M191.205 157.02H190.65C189.401 156.881 188.153 156.187 187.32 155.215L173.167 137.167C173.028 137.028 173.028 136.889 173.028 136.611C173.028 136.473 173.167 136.195 173.306 136.195L181.909 129.67L206.33 112.593L206.468 112.454L223.674 100.237V98.9877L222.98 87.6034C222.842 85.2432 223.952 83.0219 226.033 81.7724L237.133 75.2473C238.105 74.692 239.353 74.2755 240.463 74.2755C241.712 74.1366 244.765 73.9978 246.152 73.9978C246.707 73.9978 247.262 73.9978 247.817 74.1366L248.511 74.2755C249.066 74.4143 249.76 74.692 250.593 74.8308L253.923 75.8026H254.061C254.061 75.8026 254.2 75.9415 254.339 75.9415C254.894 76.2191 255.172 76.7745 255.033 77.4686C254.894 78.4404 253.923 79.8288 252.119 80.5229C251.98 80.5229 251.98 80.5229 251.841 80.6618C251.98 81.4948 251.841 82.6054 250.731 83.9938C247.817 87.7422 244.626 91.7684 244.487 91.7684C242.822 93.8509 242.961 96.4887 243.1 99.1265C243.239 101.07 243.239 103.014 242.684 104.819C242.406 105.652 242.129 106.346 241.712 106.901C240.88 108.289 239.77 109.678 238.521 110.788C237.688 111.76 236.717 112.732 235.746 113.565L196.894 153.132L194.258 155.493C194.119 155.631 193.98 155.631 193.98 155.77C193.425 156.742 192.315 157.02 191.205 157.02ZM174.693 136.889L188.43 154.382C188.985 155.076 189.818 155.631 190.789 155.77C191.76 155.909 192.732 155.631 193.425 155.076C193.564 155.076 193.564 154.937 193.703 154.798L196.2 152.438L235.052 112.871C236.023 112.038 236.995 111.066 237.827 110.094C239.076 108.984 240.047 107.734 240.741 106.346C241.157 105.79 241.435 105.235 241.573 104.541C241.99 102.875 241.99 101.209 241.851 99.2654C241.712 96.3499 241.573 93.4344 243.516 90.9354C243.655 90.7966 246.846 86.7704 249.76 83.1608C250.593 82.0501 250.87 81.0783 250.454 80.3841C250.315 80.2453 250.315 79.9676 250.454 79.6899C250.593 79.4123 250.731 79.2734 251.009 79.2734C251.286 79.2734 251.564 79.1346 251.841 79.1346C253.09 78.7181 253.645 77.8851 253.784 77.3298V77.0521L250.315 76.0803C249.621 75.9415 248.789 75.6638 248.234 75.525L247.54 75.3861C247.124 75.2473 246.707 75.2473 246.43 75.2473C245.042 75.2473 241.99 75.3861 240.741 75.525C239.77 75.525 238.798 75.8026 238.105 76.358L227.004 82.8831C225.339 83.8549 224.507 85.5209 224.645 87.4646L225.339 98.8489V100.515C225.339 100.654 225.2 100.931 225.062 101.07L207.856 113.287C207.856 113.426 207.717 113.426 207.717 113.426L183.019 130.642L174.693 136.889ZM235.33 89.5471C234.219 89.5471 233.248 89.1306 232.832 88.7141C232.277 88.1587 232.416 87.4646 232.971 86.9092L241.157 79.4123C241.296 79.2734 241.435 79.2734 241.573 79.2734L247.262 78.9958H247.401C247.679 78.9958 247.956 79.2734 248.095 79.5511C248.095 79.8288 248.095 80.1064 247.817 80.2453C247.54 80.3841 247.401 80.5229 247.262 80.6618L239.908 87.1869L238.105 88.7141C237.133 89.2694 236.162 89.5471 235.33 89.5471ZM233.942 87.7422C234.081 87.8811 234.358 88.0199 234.774 88.0199C235.607 88.1587 236.44 88.0199 236.995 87.4646L238.798 85.9374L245.32 80.2453L241.851 80.3841L233.942 87.7422Z" fill="#1D2445"/>
<path d="M212.296 108.428L181.908 129.67L164.009 144.941L172.057 154.104C173.028 155.215 174.138 156.187 175.248 156.881C181.214 162.851 190.927 162.851 196.894 156.881L197.449 156.326L226.449 123.978L212.296 108.428Z" fill="#1D2445"/>
<path d="M186.071 162.295C181.909 162.295 177.746 160.629 174.832 157.714C173.583 156.881 172.473 155.909 171.502 154.798L163.454 145.636C163.177 145.358 163.177 144.941 163.454 144.664L181.354 129.392L211.88 108.012C212.157 107.873 212.574 107.873 212.851 108.151L227.004 123.561C227.282 123.839 227.282 124.255 227.004 124.533L198.004 156.881C195.09 160.213 190.928 162.157 186.488 162.157C186.349 162.295 186.21 162.295 186.071 162.295ZM164.981 145.219L172.473 153.827C173.445 154.798 174.416 155.77 175.526 156.464C175.526 156.464 175.665 156.464 175.665 156.603C181.354 162.295 190.65 162.295 196.339 156.603L196.894 156.048L225.478 124.116L212.296 109.4L182.325 130.364L164.981 145.219Z" fill="#1D2445"/>
<path d="M52.0335 230.462L50.091 214.219L50.5072 210.332C50.7847 207.971 50.5072 205.611 49.5359 203.251C49.5359 203.251 48.5646 201.169 47.8709 199.641C47.5934 198.67 47.1771 197.559 46.7608 196.309L48.1484 156.464L25.5313 147.302L20.2586 163.823L28.3064 199.225C27.7513 199.78 27.3351 200.474 26.9188 201.03L24.2825 205.611C23.1724 207.138 22.3399 208.943 22.0624 210.748L19.5648 230.046C19.426 231.573 20.2586 233.1 21.7849 233.655C22.0624 233.655 22.3399 233.655 22.6174 233.378L21.7849 239.625C21.6461 241.152 22.4786 242.541 23.8662 243.235L23.7274 244.623C23.5887 246.15 24.56 247.678 26.0863 248.233C26.3638 248.233 26.6413 248.094 26.9188 247.955L26.6413 248.788C26.225 250.315 26.9188 251.843 28.3064 252.676C28.7226 252.814 29.2777 252.537 29.4164 252.12L41.2106 224.354C42.8757 223.382 44.402 222.132 45.6508 220.605C45.6508 220.744 45.7895 220.883 45.7895 221.022L46.2058 226.297C46.3446 227.686 46.7608 228.935 47.5934 230.046C48.1484 230.74 48.7034 231.295 49.5359 231.712C49.9522 231.851 50.3685 231.989 50.7847 231.989C51.4785 231.989 52.0335 231.295 51.8948 230.601L52.0335 230.462ZM28.8614 241.708L33.1628 225.742H33.4403L28.8614 241.708Z" fill="white"/>
<path d="M28.8607 253.37H28.4444C28.3057 253.37 28.3057 253.37 28.3057 253.231C26.7794 252.398 25.9468 250.593 26.2243 248.788H26.0856C24.2818 248.094 23.1717 246.428 23.3105 244.484L23.4492 243.513C22.0617 242.68 21.2291 241.152 21.3679 239.486L22.0617 234.35H21.7842C19.9803 233.655 18.8703 231.851 19.1478 230.046L21.6454 210.748C21.9229 208.804 22.7555 206.861 24.0043 205.195L26.5019 200.752C26.7794 200.197 27.1956 199.641 27.6119 199.086L19.5641 164.1V163.684L24.9755 147.163C24.9755 147.024 25.1143 146.885 25.3918 146.746C25.5306 146.607 25.8081 146.607 25.9468 146.746L48.564 155.909C48.8415 156.048 48.9802 156.326 48.9802 156.603L47.5927 196.309C47.8702 197.004 48.0089 197.698 48.2864 198.253L48.7027 199.503L50.3678 203.112C51.3391 205.472 51.6166 207.971 51.3391 210.47L50.9228 214.219L52.8654 230.323V230.601C52.8654 231.157 52.7266 231.573 52.4491 231.99C52.1716 232.406 51.6166 232.684 51.0616 232.684C50.5065 232.684 49.9515 232.545 49.5352 232.406C48.7027 231.989 47.8702 231.295 47.3152 230.462C46.4826 229.213 45.9276 227.825 45.9276 226.436L45.6501 222.271C44.6788 223.243 43.5688 224.215 42.32 224.909L30.5258 252.398C30.387 252.814 30.1095 253.092 29.6932 253.231C29.277 253.37 29.1382 253.37 28.8607 253.37ZM28.7219 251.981C28.8607 251.981 28.9994 251.981 28.9994 251.843L40.9324 224.076C40.9324 223.937 41.0712 223.798 41.2099 223.798C42.875 222.827 44.2625 221.716 45.3726 220.189C45.5113 219.911 45.7889 219.911 46.0664 219.911C46.3439 219.911 46.4826 220.189 46.6214 220.466C46.6214 220.605 46.7601 220.883 46.7601 221.022L47.1764 226.297C47.3152 227.547 47.7314 228.657 48.4252 229.629C48.8415 230.185 49.3965 230.74 50.0903 231.018C50.3678 231.156 50.6453 231.156 50.9228 231.156C51.0616 231.156 51.2003 231.018 51.3391 231.018C51.4778 230.879 51.4778 230.74 51.4778 230.601V230.462L49.5352 214.219V214.08L49.9515 210.193C50.229 207.971 49.9515 205.611 49.119 203.529L47.4539 199.919L47.0377 198.67C46.8989 197.975 46.6214 197.42 46.3439 196.587V196.309L47.7314 156.881L26.2243 148.273L21.2291 163.961L29.277 199.086C29.277 199.364 29.277 199.503 29.1382 199.641C28.7219 200.197 28.3057 200.752 27.8894 201.446L25.2531 206.028C24.143 207.555 23.4492 209.221 23.1717 210.887L20.6741 230.185C20.5354 231.434 21.2291 232.545 22.3392 232.961H22.4779C22.6167 232.684 23.033 232.684 23.3105 232.822C23.588 232.961 23.7267 233.239 23.7267 233.517L22.8942 239.764C22.7555 241.014 23.4492 242.124 24.5593 242.541C24.8368 242.68 24.9755 242.957 24.9755 243.235L24.8368 244.623C24.698 245.873 25.5306 246.983 26.6406 247.4H26.7794C26.9181 247.122 27.3344 247.122 27.6119 247.261C27.8894 247.4 28.0282 247.816 27.8894 248.094L27.6119 248.927C27.1956 250.038 27.7507 251.287 28.7219 251.981ZM28.8607 242.402H28.7219C28.3057 242.263 28.1669 241.985 28.1669 241.569L32.4683 225.603C32.6071 225.187 32.8846 225.048 33.3009 225.048H33.5784C33.7171 225.048 33.9946 225.187 33.9946 225.326C33.9946 225.464 34.1334 225.742 34.1334 225.881L29.5545 241.847C29.4157 242.263 29.1382 242.402 28.8607 242.402Z" fill="#1D2445"/>
<path d="M26.7801 249.482C26.3638 249.482 26.0863 249.205 26.0863 248.788V248.649L28.5839 239.625C28.7226 239.209 29.0002 239.07 29.4164 239.07C29.8327 239.07 29.9714 239.486 29.9714 239.903L27.4738 248.927C27.4738 249.205 27.1963 249.482 26.7801 249.482ZM22.6174 235.321C22.0624 235.183 21.9236 234.905 21.9236 234.488L24.9762 217.134C25.115 216.718 25.3925 216.579 25.8088 216.579C26.225 216.718 26.3638 216.995 26.3638 217.412L23.3112 234.766C23.3112 235.044 23.0337 235.321 22.6174 235.321ZM24.005 244.623H23.8662C23.4499 244.484 23.3112 244.207 23.3112 243.79L28.0289 222.132C28.1676 221.716 28.4451 221.577 28.8614 221.577C29.2777 221.716 29.4164 221.993 29.4164 222.41L24.56 244.068C24.56 244.346 24.2825 244.623 24.005 244.623ZM24.9762 190.617L19.0098 162.018L22.4787 124.255C23.1724 114.815 31.359 107.734 40.7944 108.428L43.4307 108.567C49.2584 108.984 53.6986 114.12 53.2823 120.09L47.3159 191.728L24.9762 190.617ZM78.8133 404.975C78.3971 404.975 78.1196 404.697 78.1196 404.42L70.2105 344.444C70.2105 344.027 70.488 343.75 70.7655 343.611C71.1818 343.611 71.4593 343.889 71.5981 344.166L79.5071 404.142C79.5071 404.558 79.2296 404.975 78.8133 404.975ZM63.5502 261.977C63.134 261.977 62.8565 261.7 62.8565 261.283L62.3014 208.804C62.3014 204.501 65.3541 200.752 69.5167 199.78C69.933 199.78 70.2105 199.919 70.3493 200.336C70.3493 200.752 70.2105 201.03 69.7942 201.169C66.1866 201.863 63.5502 205.056 63.689 208.804L64.244 261.283C64.244 261.7 63.9665 261.977 63.5502 261.977Z" fill="#1D2445"/>
</g>
<g clip-path="url(#clip1_2019_246)">
<path d="M227.589 88.0224C227.523 87.7627 227.566 87.4864 227.709 87.2543C227.853 87.0222 228.084 86.8533 228.353 86.7848L253.695 80.3251C253.964 80.2566 254.248 80.294 254.485 80.4292C254.722 80.5644 254.892 80.7862 254.959 81.046C255.025 81.3057 254.981 81.582 254.838 81.8141C254.695 82.0462 254.463 82.2151 254.194 82.2836L228.852 88.7432C228.583 88.8118 228.299 88.7743 228.062 88.6391C227.825 88.5039 227.655 88.2821 227.589 88.0224Z" fill="#002652"/>
<path d="M241.848 77.6093L245.093 90.3394L195.759 102.914L192.514 90.184L241.848 77.6093Z" fill="#1D2445"/>
</g>
<g clip-path="url(#clip2_2019_246)">
<path d="M370.812 470.227C370.333 470.227 369.868 470.066 369.49 469.771C369.113 469.476 368.845 469.064 368.729 468.599L280.708 115.083C280.64 114.809 280.626 114.525 280.668 114.246C280.71 113.967 280.807 113.699 280.952 113.458C281.246 112.97 281.721 112.619 282.274 112.482C282.548 112.413 282.832 112.4 283.111 112.442C283.39 112.484 283.658 112.58 283.9 112.725C284.388 113.019 284.739 113.494 284.877 114.047L372.901 467.563C372.98 467.879 372.985 468.21 372.917 468.529C372.849 468.848 372.709 469.147 372.508 469.404C372.307 469.66 372.05 469.868 371.757 470.011C371.464 470.153 371.142 470.227 370.815 470.227H370.812Z" fill="white"/>
<path d="M370.813 470.942C370.174 470.942 369.553 470.729 369.049 470.336C368.546 469.942 368.188 469.392 368.034 468.772L280.012 115.256C279.922 114.891 279.904 114.512 279.959 114.14C280.015 113.768 280.144 113.411 280.338 113.089C280.531 112.767 280.787 112.486 281.089 112.263C281.392 112.039 281.735 111.878 282.1 111.787C282.465 111.696 282.845 111.678 283.217 111.734C283.589 111.79 283.946 111.918 284.268 112.112C284.591 112.306 284.872 112.561 285.095 112.863C285.319 113.165 285.481 113.509 285.571 113.874L373.596 467.389C373.701 467.81 373.709 468.251 373.618 468.676C373.528 469.102 373.341 469.501 373.073 469.843C372.805 470.186 372.463 470.463 372.071 470.654C371.68 470.844 371.251 470.943 370.816 470.942H370.813ZM282.798 113.132C282.68 113.132 282.561 113.147 282.446 113.175C282.264 113.221 282.092 113.302 281.94 113.413C281.789 113.525 281.661 113.666 281.564 113.827C281.467 113.988 281.403 114.167 281.375 114.353C281.348 114.539 281.357 114.728 281.403 114.911L369.427 468.426C369.525 468.79 369.761 469.103 370.085 469.298C370.408 469.492 370.795 469.554 371.163 469.47C371.346 469.425 371.518 469.344 371.669 469.232C371.821 469.12 371.948 468.98 372.045 468.819C372.142 468.658 372.206 468.479 372.234 468.293C372.262 468.107 372.253 467.917 372.207 467.735L284.181 114.22C284.105 113.911 283.927 113.636 283.677 113.439C283.426 113.242 283.117 113.134 282.798 113.132Z" fill="#1D2445"/>
<path d="M327.966 300.289C327.007 300.288 326.077 299.967 325.322 299.377C324.567 298.787 324.032 297.961 323.801 297.031L278.619 115.602C278.343 114.497 278.518 113.328 279.105 112.353C279.692 111.377 280.643 110.674 281.749 110.399C282.854 110.124 284.024 110.299 285 110.886C285.976 111.472 286.679 112.423 286.955 113.527L332.13 294.958C332.405 296.061 332.231 297.228 331.646 298.202C331.061 299.177 330.113 299.88 329.011 300.158C328.669 300.244 328.318 300.288 327.966 300.289Z" fill="white"/>
<path d="M327.965 301.005C326.847 301.005 325.76 300.632 324.88 299.943C323.999 299.254 323.374 298.29 323.106 297.205L277.93 115.775C277.771 115.137 277.739 114.474 277.837 113.823C277.934 113.173 278.159 112.548 278.498 111.985C278.837 111.421 279.284 110.93 279.813 110.539C280.342 110.148 280.943 109.865 281.582 109.706C282.22 109.547 282.884 109.515 283.535 109.613C284.185 109.71 284.81 109.935 285.374 110.274C285.938 110.613 286.43 111.059 286.821 111.588C287.212 112.117 287.496 112.717 287.654 113.356L332.831 294.785C333.15 296.074 332.945 297.436 332.261 298.574C331.576 299.712 330.468 300.532 329.179 300.854C328.782 300.953 328.375 301.004 327.965 301.005ZM282.791 110.988C282.248 110.988 281.713 111.112 281.225 111.35C280.737 111.588 280.31 111.933 279.975 112.361C279.641 112.788 279.408 113.286 279.294 113.816C279.181 114.347 279.189 114.896 279.32 115.423L324.495 296.854C324.73 297.769 325.317 298.554 326.128 299.037C326.939 299.521 327.909 299.665 328.826 299.437C329.743 299.209 330.532 298.628 331.022 297.821C331.512 297.013 331.663 296.045 331.441 295.127L286.264 113.7C286.071 112.926 285.625 112.238 284.995 111.746C284.366 111.255 283.59 110.988 282.791 110.988Z" fill="#1D2445"/>
<path d="M270.184 91.311H279.974V116.217H270.184V91.311Z" fill="#1D2445"/>
<path d="M279.976 116.932H270.184C269.994 116.932 269.812 116.857 269.677 116.723C269.543 116.589 269.468 116.407 269.468 116.217V91.3109C269.468 91.1212 269.543 90.9393 269.677 90.8051C269.812 90.6709 269.994 90.5956 270.184 90.5956H279.976C280.166 90.5956 280.348 90.6709 280.482 90.8051C280.616 90.9393 280.691 91.1212 280.691 91.3109V116.217C280.691 116.407 280.616 116.589 280.482 116.723C280.348 116.857 280.166 116.932 279.976 116.932ZM270.899 115.502H279.26V92.0263H270.899V115.502Z" fill="#1D2445"/>
<path d="M155.644 463.739C155.422 463.739 155.202 463.704 154.991 463.636C154.449 463.463 153.998 463.081 153.737 462.576C153.475 462.071 153.426 461.482 153.598 460.94L264.502 113.912C264.677 113.372 265.059 112.922 265.564 112.663C266.07 112.403 266.657 112.354 267.199 112.527C267.74 112.699 268.191 113.079 268.453 113.584C268.714 114.088 268.765 114.675 268.594 115.217L157.69 462.245C157.551 462.679 157.279 463.057 156.911 463.325C156.543 463.594 156.099 463.739 155.644 463.739Z" fill="white"/>
<path d="M155.644 464.454C155.194 464.453 154.751 464.346 154.35 464.141C153.949 463.937 153.602 463.641 153.337 463.277C153.072 462.913 152.896 462.493 152.825 462.048C152.753 461.604 152.787 461.15 152.924 460.721L263.821 113.695C264.062 112.985 264.572 112.397 265.242 112.059C265.912 111.722 266.688 111.66 267.403 111.888C268.118 112.116 268.715 112.615 269.065 113.279C269.415 113.942 269.491 114.716 269.275 115.434L158.371 462.462C158.188 463.041 157.825 463.547 157.334 463.905C156.844 464.263 156.252 464.455 155.644 464.454ZM266.542 113.132C266.239 113.133 265.944 113.23 265.699 113.411C265.455 113.591 265.275 113.844 265.185 114.134L154.281 461.158C154.166 461.519 154.199 461.911 154.373 462.248C154.547 462.585 154.848 462.839 155.209 462.955C155.57 463.065 155.961 463.029 156.296 462.856C156.632 462.683 156.887 462.386 157.007 462.027L267.911 115C267.979 114.785 267.995 114.558 267.958 114.336C267.921 114.114 267.832 113.904 267.699 113.723C267.565 113.542 267.391 113.394 267.19 113.293C266.989 113.192 266.767 113.139 266.542 113.14V113.132Z" fill="#1D2445"/>
<path d="M209.633 296.957C208.956 296.957 208.29 296.798 207.687 296.492C207.084 296.186 206.562 295.742 206.163 295.196C205.764 294.65 205.5 294.018 205.392 293.351C205.284 292.684 205.335 292.001 205.541 291.357L262.457 113.258C262.813 112.186 263.578 111.297 264.586 110.785C265.594 110.272 266.763 110.178 267.84 110.522C268.917 110.866 269.815 111.62 270.339 112.622C270.863 113.623 270.971 114.791 270.638 115.871L213.723 293.97C213.446 294.837 212.9 295.593 212.165 296.13C211.43 296.667 210.543 296.957 209.633 296.957Z" fill="white"/>
<path d="M209.633 297.672C208.844 297.673 208.066 297.487 207.362 297.13C206.659 296.773 206.05 296.255 205.584 295.618C205.119 294.982 204.811 294.244 204.685 293.466C204.558 292.688 204.618 291.891 204.858 291.14L261.775 113.041C262.184 111.781 263.075 110.734 264.254 110.13C265.433 109.525 266.804 109.412 268.067 109.815C269.329 110.218 270.38 111.104 270.99 112.28C271.6 113.456 271.719 114.825 271.321 116.088L214.404 294.189C214.083 295.201 213.447 296.085 212.589 296.712C211.731 297.338 210.695 297.675 209.633 297.672ZM266.543 110.985C265.785 110.986 265.047 111.229 264.435 111.676C263.823 112.124 263.37 112.754 263.14 113.476L206.222 291.573C205.934 292.477 206.016 293.457 206.451 294.3C206.886 295.143 207.638 295.778 208.542 296.067C209.446 296.344 210.422 296.257 211.263 295.824C212.103 295.391 212.741 294.646 213.04 293.749L269.957 115.653C270.127 115.117 270.168 114.547 270.078 113.992C269.987 113.436 269.766 112.909 269.433 112.455C269.101 112 268.666 111.63 268.164 111.375C267.661 111.119 267.106 110.986 266.543 110.985Z" fill="#1D2445"/>
<path d="M155.644 463.739C155.422 463.739 155.202 463.704 154.991 463.636C154.449 463.463 153.998 463.081 153.737 462.576C153.475 462.071 153.426 461.482 153.598 460.94L264.502 113.912C264.677 113.372 265.059 112.922 265.564 112.663C266.07 112.403 266.657 112.354 267.199 112.527C267.74 112.699 268.191 113.079 268.453 113.584C268.714 114.088 268.765 114.675 268.594 115.217L157.69 462.245C157.551 462.679 157.279 463.057 156.911 463.325C156.543 463.594 156.099 463.739 155.644 463.739Z" fill="white"/>
<path d="M155.644 464.454C155.194 464.453 154.751 464.346 154.35 464.141C153.949 463.937 153.602 463.641 153.337 463.277C153.072 462.913 152.896 462.493 152.825 462.048C152.753 461.604 152.787 461.15 152.924 460.721L263.821 113.695C264.062 112.985 264.572 112.397 265.242 112.059C265.912 111.722 266.688 111.66 267.403 111.888C268.118 112.116 268.715 112.615 269.065 113.279C269.415 113.942 269.491 114.716 269.275 115.434L158.371 462.462C158.188 463.041 157.825 463.547 157.334 463.905C156.844 464.263 156.252 464.455 155.644 464.454ZM266.542 113.132C266.239 113.133 265.944 113.23 265.699 113.411C265.455 113.591 265.275 113.844 265.185 114.134L154.281 461.158C154.166 461.519 154.199 461.911 154.373 462.248C154.547 462.585 154.848 462.839 155.209 462.955C155.57 463.065 155.961 463.029 156.296 462.856C156.632 462.683 156.887 462.386 157.007 462.027L267.911 115C267.979 114.785 267.995 114.558 267.958 114.336C267.921 114.114 267.832 113.904 267.699 113.723C267.565 113.542 267.391 113.394 267.19 113.293C266.989 113.192 266.767 113.139 266.542 113.14V113.132Z" fill="#1D2445"/>
<path d="M209.633 296.957C208.956 296.957 208.29 296.798 207.687 296.492C207.084 296.186 206.562 295.742 206.163 295.196C205.764 294.65 205.5 294.018 205.392 293.351C205.284 292.684 205.335 292.001 205.541 291.357L262.457 113.258C262.813 112.186 263.578 111.297 264.586 110.785C265.594 110.272 266.763 110.178 267.84 110.522C268.917 110.866 269.815 111.62 270.339 112.622C270.863 113.623 270.971 114.791 270.638 115.871L213.723 293.97C213.446 294.837 212.9 295.593 212.165 296.13C211.43 296.667 210.543 296.957 209.633 296.957Z" fill="white"/>
<path d="M209.633 297.672C208.844 297.673 208.066 297.487 207.362 297.13C206.659 296.773 206.05 296.255 205.584 295.618C205.119 294.982 204.811 294.244 204.685 293.466C204.558 292.688 204.618 291.891 204.858 291.14L261.775 113.041C262.184 111.781 263.075 110.734 264.254 110.13C265.433 109.525 266.804 109.412 268.067 109.815C269.329 110.218 270.38 111.104 270.99 112.28C271.6 113.456 271.719 114.825 271.321 116.088L214.404 294.189C214.083 295.201 213.447 296.085 212.589 296.712C211.731 297.338 210.695 297.675 209.633 297.672ZM266.543 110.985C265.785 110.986 265.047 111.229 264.435 111.676C263.823 112.124 263.37 112.754 263.14 113.476L206.222 291.573C205.934 292.477 206.016 293.457 206.451 294.3C206.886 295.143 207.638 295.778 208.542 296.067C209.446 296.344 210.422 296.257 211.263 295.824C212.103 295.391 212.741 294.646 213.04 293.749L269.957 115.653C270.127 115.117 270.168 114.547 270.078 113.992C269.987 113.436 269.766 112.909 269.433 112.455C269.101 112 268.666 111.63 268.164 111.375C267.661 111.119 267.106 110.986 266.543 110.985Z" fill="#1D2445"/>
<path d="M314.597 479.035C314.067 479.034 313.555 478.837 313.161 478.482C312.768 478.127 312.519 477.639 312.464 477.112L274.568 114.788C274.509 114.221 274.677 113.655 275.036 113.212C275.395 112.77 275.915 112.488 276.482 112.429C277.048 112.37 277.615 112.538 278.058 112.897C278.5 113.255 278.782 113.775 278.842 114.341L316.737 476.665C316.767 476.946 316.74 477.229 316.66 477.499C316.58 477.769 316.447 478.021 316.27 478.24C316.092 478.459 315.873 478.641 315.625 478.775C315.377 478.91 315.105 478.994 314.825 479.023C314.749 479.03 314.673 479.034 314.597 479.035Z" fill="white"/>
<path d="M314.597 479.75C313.89 479.749 313.208 479.487 312.683 479.014C312.157 478.541 311.826 477.89 311.752 477.188L273.856 114.862C273.817 114.488 273.852 114.111 273.959 113.75C274.066 113.39 274.243 113.054 274.48 112.762C274.958 112.173 275.651 111.797 276.407 111.718C277.162 111.639 277.918 111.863 278.508 112.341C278.8 112.578 279.043 112.87 279.222 113.2C279.401 113.531 279.514 113.893 279.553 114.267L317.448 476.591C317.488 476.965 317.454 477.343 317.347 477.704C317.24 478.065 317.063 478.401 316.826 478.693C316.59 478.985 316.298 479.228 315.967 479.408C315.636 479.587 315.273 479.699 314.899 479.738C314.79 479.744 314.694 479.75 314.597 479.75ZM276.702 113.134C276.652 113.134 276.601 113.137 276.551 113.142C276.174 113.183 275.828 113.372 275.59 113.667C275.352 113.962 275.241 114.339 275.281 114.716L313.175 477.042C313.215 477.419 313.403 477.765 313.698 478.004C313.993 478.243 314.371 478.355 314.749 478.316C315.127 478.276 315.473 478.088 315.712 477.793C315.952 477.498 316.064 477.12 316.024 476.743L278.13 114.414C278.094 114.062 277.928 113.735 277.664 113.498C277.4 113.261 277.057 113.131 276.702 113.134Z" fill="#1D2445"/>
<path d="M296.148 304.807C295.087 304.806 294.064 304.412 293.276 303.702C292.488 302.992 291.992 302.015 291.882 300.96L272.434 115.01C272.332 113.886 272.677 112.768 273.394 111.896C274.111 111.025 275.142 110.471 276.265 110.354C277.388 110.236 278.511 110.566 279.393 111.27C280.275 111.975 280.843 112.998 280.976 114.118L300.424 300.069C300.484 300.63 300.432 301.197 300.272 301.738C300.112 302.279 299.846 302.784 299.491 303.222C299.136 303.661 298.697 304.025 298.201 304.294C297.705 304.563 297.16 304.732 296.599 304.79C296.449 304.805 296.298 304.81 296.148 304.807Z" fill="white"/>
<path d="M296.148 305.523C294.909 305.524 293.714 305.066 292.795 304.237C291.875 303.407 291.296 302.266 291.171 301.035L271.722 115.084C271.585 113.763 271.977 112.442 272.814 111.411C273.651 110.379 274.863 109.722 276.185 109.584C276.836 109.511 277.496 109.569 278.125 109.754C278.754 109.939 279.339 110.248 279.847 110.663C280.363 111.076 280.791 111.588 281.108 112.169C281.424 112.75 281.621 113.388 281.688 114.045L301.136 299.994C301.274 301.315 300.881 302.636 300.044 303.668C299.207 304.699 297.995 305.356 296.674 305.494C296.499 305.514 296.324 305.523 296.148 305.523ZM276.724 110.986C276.595 110.986 276.466 110.994 276.338 111.008C275.87 111.056 275.416 111.196 275.003 111.42C274.589 111.643 274.223 111.946 273.927 112.311C273.63 112.676 273.409 113.096 273.275 113.546C273.141 113.997 273.097 114.469 273.145 114.937L292.594 300.886C292.692 301.829 293.162 302.695 293.899 303.293C294.636 303.89 295.581 304.17 296.525 304.072C297.469 303.974 298.335 303.504 298.933 302.768C299.531 302.031 299.811 301.087 299.713 300.143L280.265 114.193C280.216 113.723 280.075 113.268 279.849 112.853C279.623 112.438 279.316 112.073 278.948 111.778C278.32 111.266 277.534 110.986 276.724 110.986Z" fill="#1D2445"/>
<path d="M266.624 81.9712H284.426V106.877H266.624V81.9712Z" fill="white"/>
<path d="M284.424 107.593H266.624C266.434 107.593 266.252 107.517 266.118 107.383C265.984 107.249 265.908 107.067 265.908 106.877V81.9712C265.908 81.7814 265.984 81.5995 266.118 81.4653C266.252 81.3312 266.434 81.2558 266.624 81.2558H284.424C284.614 81.2558 284.796 81.3312 284.931 81.4653C285.065 81.5995 285.14 81.7814 285.14 81.9712V106.877C285.14 107.067 285.065 107.249 284.931 107.383C284.796 107.517 284.614 107.593 284.424 107.593ZM267.34 106.162H283.709V82.6865H267.34V106.162Z" fill="#1D2445"/>
</g>
<g clip-path="url(#clip3_2019_246)">
<path d="M442.078 16.6751C442.064 16.6772 442.055 16.7014 442.037 16.7043L442.034 16.6867L401.996 25.2612L412.97 76.287L453.008 67.7124L453.005 67.6948C453.018 67.6926 453.039 67.7074 453.052 67.7052C456.187 67.0349 456.272 55.068 453.243 40.9772C450.213 26.882 445.213 16.0048 442.078 16.6751Z" fill="#FDFDFD"/>
<path d="M413.326 78.4862C412.756 78.5769 412.173 78.4477 411.698 78.1251C411.222 77.8025 410.889 77.3111 410.769 76.7519L399.796 25.7305C399.734 25.4439 399.73 25.1477 399.783 24.8591C399.837 24.5705 399.947 24.2951 400.108 24.0485C400.269 23.802 400.478 23.5892 400.721 23.4223C400.965 23.2553 401.239 23.1376 401.528 23.0757L441.567 14.5055L441.722 14.4759C449.2 13.2655 454.463 35.945 455.442 40.5036C456.94 47.4703 457.746 54.1735 457.709 59.3806C457.663 65.9459 456.332 69.2819 453.519 69.8865L453.475 69.8937L413.437 78.4682L413.326 78.4862ZM404.668 26.9681L414.702 73.6278L452.253 65.5869L452.318 65.5673C453.371 63.9813 454.062 55.48 451.046 41.4414C448.027 27.4123 443.902 19.9392 442.286 18.9208L442.214 18.9279L404.668 26.9681Z" fill="#1D2445"/>
<path d="M401.996 25.2634C398.837 25.9399 398.732 37.9107 401.763 52.0008C404.793 66.091 409.811 76.9648 412.97 76.2883C416.129 75.6118 416.234 63.641 413.204 49.5509C410.173 35.4608 405.156 24.5869 401.996 25.2634Z" fill="#1D2445"/>
<path d="M413.255 78.5021C405.803 79.7038 400.54 57.0243 399.561 52.4658C398.566 47.8418 393.988 24.6896 401.528 23.0757C409.157 21.8408 414.42 44.5159 415.399 49.0744C416.901 56.0405 417.703 62.7443 417.657 67.9573C417.597 74.5204 416.259 77.8622 413.436 78.4638C413.376 78.4788 413.316 78.4915 413.255 78.5021ZM402.532 27.7569C401.58 30.0186 401.121 38.3195 403.961 51.5228C406.892 65.15 410.882 72.5772 412.597 73.9277C413.329 72.3348 413.981 63.876 410.999 50.0174C408.16 36.8185 404.328 29.4337 402.532 27.7569Z" fill="#1D2445"/>
<path d="M410.249 50.1794C408.088 40.127 405.275 32.134 403.637 31.1192C403.361 30.9062 403.21 30.9306 403.21 30.9306L304.578 52.0466L313.114 91.7307L411.75 70.614C411.75 70.614 411.894 70.5726 412.059 70.27C413.133 68.676 412.414 60.231 410.249 50.1794Z" fill="#FDFDFD"/>
<path d="M313.467 93.935C312.896 94.0268 312.313 93.898 311.837 93.5753C311.361 93.2525 311.029 92.7604 310.909 92.2006L302.377 52.5114C302.316 52.2247 302.311 51.9286 302.365 51.64C302.419 51.3514 302.529 51.076 302.69 50.8294C302.851 50.5829 303.059 50.3701 303.303 50.2031C303.547 50.0362 303.821 49.9184 304.11 49.8565L402.742 28.7406C403.34 28.6031 404.114 28.6496 405.025 29.3479C408.28 31.3627 411.535 45.4395 412.454 49.705C413.372 53.9704 416.188 68.1544 413.929 71.505C413.765 71.8066 413.542 72.0728 413.273 72.288C413.004 72.5032 412.694 72.6631 412.362 72.7582L313.581 93.9118L313.467 93.935ZM307.25 53.7534L314.843 89.0765L410.203 68.662C410.487 66.6124 410.132 60.3336 408.053 50.6479C405.958 40.9151 403.688 35.0368 402.628 33.336L307.25 53.7534Z" fill="#1D2445"/>
<path d="M304.577 52.0477C302.31 52.5331 302.383 61.8104 304.74 72.7691C307.097 83.7278 310.845 92.2181 313.112 91.7328C315.378 91.2474 315.305 81.9701 312.948 71.0114C310.592 60.0526 306.843 51.5623 304.577 52.0477Z" fill="#1D2445"/>
<path d="M313.427 93.9415C307.816 94.8496 303.947 79.7643 302.543 73.2346C301.12 66.6131 298.427 51.075 304.116 49.8602C309.882 48.9269 313.751 64.0078 315.154 70.5375C316.323 75.9791 316.987 81.2128 317.024 85.2727C317.053 88.945 316.686 93.2466 313.586 93.9111L313.427 93.9415ZM305.307 55.4429C304.967 58.1662 305.148 63.9621 306.94 72.2968C308.734 80.622 310.948 85.9848 312.377 88.3314C312.72 85.603 312.535 79.8078 310.745 71.4819C308.959 63.1508 306.74 57.7888 305.307 55.4429Z" fill="#1D2445"/>
<path d="M305.082 57.867L220.733 75.925L226.827 104.273L311.176 86.2146C312.604 85.9065 312.4 79.3139 310.718 71.4862C309.035 63.6584 306.511 57.5633 305.082 57.867Z" fill="#FDFDFD"/>
<path d="M227.184 106.476C226.614 106.568 226.03 106.439 225.554 106.116C225.078 105.794 224.746 105.302 224.626 104.742L218.532 76.3942C218.471 76.1081 218.467 75.8126 218.52 75.5246C218.574 75.2365 218.684 74.9616 218.844 74.7156C219.005 74.4695 219.213 74.2571 219.456 74.0904C219.699 73.9238 219.973 73.8063 220.262 73.7445L304.611 55.6865C307.865 55.1598 310.618 60.3268 312.914 71.0176C313.757 74.9289 314.269 78.6857 314.362 81.5969C314.455 84.6527 314.206 87.8498 311.639 88.3965L227.295 106.458L227.184 106.476ZM223.401 77.6369L228.555 101.618L309.783 84.2285C310.013 82.6355 309.876 78.2933 308.513 71.9561C307.148 65.6145 305.49 61.6 304.619 60.2441L223.401 77.6369Z" fill="#1D2445"/>
</g>
<defs>
<clipPath id="clip0_2019_246">
<rect width="257.391" height="469.532" fill="white"/>
</clipPath>
<clipPath id="clip1_2019_246">
<rect width="13.1372" height="62.7665" fill="white" transform="translate(253.336 74.6809) rotate(75.7001)"/>
</clipPath>
<clipPath id="clip2_2019_246">
<rect width="220.899" height="398.494" fill="white" transform="translate(152.781 81.2558)"/>
</clipPath>
<clipPath id="clip3_2019_246">
<rect width="239.875" height="58.874" fill="white" transform="translate(214.331 51.1686) rotate(-9.19424)"/>
</clipPath>
</defs>
</svg>
