<svg width="551" height="566" viewBox="0 0 551 566" fill="none" xmlns="http://www.w3.org/2000/svg">
<g clip-path="url(#clip0_2005_154)">
<rect width="551" height="566" rx="275.5" fill="#E5F2FE"/>
<path d="M427.607 265.13V387.217H499.606L491.78 346.608L499.606 318.301V265.13H427.607Z" fill="white"/>
<path d="M427.607 387.998H499.606C499.84 387.998 500.062 387.895 500.211 387.713C500.359 387.532 500.42 387.295 500.375 387.067L492.582 346.639L500.359 318.507C500.38 318.442 500.389 318.371 500.389 318.301V265.129C500.389 264.697 500.038 264.346 499.606 264.346H427.607C427.175 264.346 426.824 264.697 426.824 265.129V387.215C426.824 387.649 427.175 387.998 427.607 387.998ZM498.659 386.433H428.389V265.911H498.824V318.194L491.027 346.399C490.995 346.515 490.99 346.636 491.012 346.756L498.659 386.433Z" fill="#1D2445"/>
<path d="M405.693 199.393H333.694V387.218H405.693V199.393Z" fill="white"/>
<path d="M333.694 388.001H405.694C406.126 388.001 406.477 387.65 406.477 387.218V199.393C406.477 198.961 406.126 198.61 405.694 198.61H333.694C333.262 198.61 332.912 198.961 332.912 199.393V387.218C332.912 387.652 333.262 388.001 333.694 388.001ZM404.911 386.436H334.477V200.175H404.911V386.436Z" fill="#1D2445"/>
<path d="M311.781 152.437H249.173V387.219H311.781V152.437Z" fill="white"/>
<path d="M249.172 388.001H311.781C312.213 388.001 312.563 387.65 312.563 387.218V152.436C312.563 152.004 312.213 151.654 311.781 151.654H249.172C248.74 151.654 248.39 152.004 248.39 152.436V387.218C248.39 387.652 248.74 388.001 249.172 388.001ZM310.998 386.436H249.955V153.219H310.998V386.436Z" fill="#1D2445"/>
<path d="M217.868 199.393H145.868V387.218H217.868V199.393Z" fill="white"/>
<path d="M145.868 388.001H217.868C218.3 388.001 218.65 387.65 218.65 387.218V199.393C218.65 198.961 218.3 198.61 217.868 198.61H145.868C145.436 198.61 145.085 198.961 145.085 199.393V387.218C145.085 387.652 145.436 388.001 145.868 388.001ZM217.085 386.436H146.651V200.175H217.085V386.436Z" fill="#1D2445"/>
<path d="M123.955 136.784H51.9553V387.218H123.955V136.784Z" fill="white"/>
<path d="M51.9559 388.001H123.956C124.388 388.001 124.738 387.65 124.738 387.218V136.784C124.738 136.352 124.388 136.002 123.956 136.002H51.9559C51.5239 136.002 51.1733 136.352 51.1733 136.784V387.218C51.1733 387.652 51.5239 388.001 51.9559 388.001ZM123.173 386.436H52.7385V137.567H123.173V386.436Z" fill="#1D2445"/>
<path d="M30.043 155.567H-41.9568V387.218H30.043V155.567Z" fill="white"/>
<path d="M-41.9572 388.001H30.0426C30.4746 388.001 30.8252 387.65 30.8252 387.218V155.567C30.8252 155.135 30.4746 154.784 30.0426 154.784H-41.9572C-42.3892 154.784 -42.7398 155.135 -42.7398 155.567V387.218C-42.7398 387.652 -42.3892 388.001 -41.9572 388.001ZM29.26 386.436H-41.1746V156.349H29.26V386.436Z" fill="#1D2445"/>
<path d="M480.824 344.737L330.564 208.563L264.825 286.824L120.825 161.607L45.695 202.302L23.782 187.01L-48.2178 136.783V203.915L23.782 233.45L39.4342 239.868L117.695 211.694L264.825 314.998C264.825 314.998 321.173 252.389 333.694 258.65C346.216 264.911 452.65 344.737 452.65 344.737H480.824Z" fill="#1D2445"/>
<path d="M-48.2174 136C-48.341 136 -48.4647 136.03 -48.579 136.089C-48.8372 136.224 -49 136.492 -49 136.783V203.915C-49 204.232 -48.809 204.519 -48.5132 204.639L39.1387 240.594C39.3172 240.666 39.5175 240.671 39.6991 240.606L117.578 212.57L264.376 315.641C264.7 315.87 265.141 315.818 265.408 315.524C265.915 314.96 316.455 258.996 331.619 258.996C332.291 258.996 332.871 259.117 333.346 259.354C345.661 265.514 451.118 344.569 452.183 345.368C452.317 345.468 452.482 345.524 452.652 345.524H480.826C481.15 345.524 481.441 345.325 481.557 345.023C481.673 344.723 481.592 344.38 481.352 344.162L331.092 207.989C330.932 207.843 330.729 207.765 330.513 207.787C330.3 207.803 330.102 207.901 329.966 208.066L264.739 285.716L121.341 161.022C121.095 160.809 120.741 160.768 120.455 160.923L45.7486 201.388L-47.7697 136.141C-47.9044 136.049 -48.0593 136 -48.2174 136ZM-47.4348 203.39V138.282L45.2477 202.946C45.4919 203.113 45.8112 203.132 46.0679 202.991L120.721 162.554L264.31 287.414C264.47 287.553 264.68 287.618 264.885 287.603C265.094 287.588 265.289 287.488 265.423 287.326L330.639 209.687L478.795 343.953H452.911C446.226 338.941 346.329 264.092 334.044 257.949C333.35 257.601 332.533 257.426 331.618 257.426C316.39 257.426 270.191 307.907 264.708 313.959L118.143 211.052C117.936 210.906 117.669 210.869 117.429 210.955L39.4533 239.032L-47.4348 203.39Z" fill="#1D2445"/>
<path d="M411.955 344.735L499.607 385.431L468.303 291.518L452.651 329.083L411.955 344.735Z" fill="#1D2445"/>
<path d="M468.304 290.735C467.989 290.735 467.703 290.925 467.58 291.217L452.058 328.474L411.674 344.006C411.38 344.119 411.184 344.396 411.173 344.71C411.162 345.023 411.341 345.314 411.626 345.446L499.278 386.141C499.561 386.274 499.896 386.224 500.129 386.016C500.361 385.808 500.448 385.481 500.351 385.185L469.047 291.272C468.944 290.964 468.659 290.749 468.333 290.737C468.322 290.735 468.313 290.735 468.304 290.735ZM413.959 344.803L452.932 329.814C453.13 329.737 453.29 329.582 453.373 329.385L468.221 293.748L498.29 383.958L413.959 344.803Z" fill="#1D2445"/>
</g>
<defs>
<clipPath id="clip0_2005_154">
<rect width="551" height="566" rx="275.5" fill="white"/>
</clipPath>
</defs>
</svg>
