<svg width="90" height="72" viewBox="0 0 90 72" fill="none" xmlns="http://www.w3.org/2000/svg">
<path d="M38.6014 0L24.7552 50.8235L20.1399 31.7647C26.1538 31.7647 31.049 33.5294 34.8252 37.0588C38.6014 40.5882 40.4895 45.4588 40.4895 51.6706C40.4895 57.7412 38.5315 62.6824 34.6154 66.4941C30.8392 70.1647 26.0839 72 20.3497 72C14.4755 72 9.58042 70.1647 5.66434 66.4941C1.88811 62.6824 0 57.7412 0 51.6706C0 49.8353 0.13986 48.0706 0.419581 46.3765C0.699301 44.5412 1.25874 42.4235 2.0979 40.0235C2.93706 37.6235 4.12587 34.4471 5.66434 30.4941L17.8322 0H38.6014ZM88.1119 0L74.2657 50.8235L69.6504 31.7647C75.6643 31.7647 80.5594 33.5294 84.3357 37.0588C88.1119 40.5882 90 45.4588 90 51.6706C90 57.7412 88.042 62.6824 84.1259 66.4941C80.3496 70.1647 75.5944 72 69.8601 72C63.986 72 59.0909 70.1647 55.1748 66.4941C51.3986 62.6824 49.5105 57.7412 49.5105 51.6706C49.5105 49.8353 49.6504 48.0706 49.9301 46.3765C50.2098 44.5412 50.7692 42.4235 51.6084 40.0235C52.4476 37.6235 53.6364 34.4471 55.1748 30.4941L67.3427 0H88.1119Z" fill="url(#paint0_linear_187_5335)"/>
<defs>
<linearGradient id="paint0_linear_187_5335" x1="0" y1="36" x2="90" y2="36" gradientUnits="userSpaceOnUse">
<stop stop-color="#0095FF"/>
<stop offset="1" stop-color="#31C6E8"/>
</linearGradient>
</defs>
</svg>
