<svg width="234" height="25" viewBox="0 0 234 25" fill="none" xmlns="http://www.w3.org/2000/svg">
<path d="M231.989 19.8849L234 22.2863C232.715 23.85 230.872 24.6877 228.722 24.6877C225.818 24.6877 223.78 23.6266 220.764 20.4434C215.402 19.7732 211.633 15.7243 211.633 10.4188C211.633 4.61076 216.156 0.310547 222.328 0.310547C228.471 0.310547 233.022 4.58284 233.022 10.4188C233.022 14.9983 230.202 18.6283 226.041 19.9687C226.991 20.9739 227.828 21.3369 228.806 21.3369C230.006 21.3369 231.068 20.8622 231.989 19.8849ZM216.212 10.4188C216.212 14.1327 218.837 16.6737 222.328 16.6737C225.818 16.6737 228.443 14.1327 228.443 10.4188C228.443 6.70502 225.818 4.16399 222.328 4.16399C218.837 4.16399 216.212 6.70502 216.212 10.4188Z" fill="#FF6A29"/>
<path d="M196.719 20.191V0.644531H201.242V20.191H196.719Z" fill="#FF6A29"/>
<path d="M185.098 20.191H180.854L180.826 8.4631L175.073 18.1246H173.035L167.311 8.71441V20.191H163.066V0.644531H166.808L174.124 12.7912L181.328 0.644531H185.042L185.098 20.191Z" fill="#FF6A29"/>
<path d="M152.867 20.191H148.009L144.239 14.7459H144.016H140.078V20.191H135.555V0.644531H144.016C149.237 0.644531 152.504 3.35311 152.504 7.73709C152.504 10.6691 151.024 12.8192 148.483 13.9082L152.867 20.191ZM147.925 7.73709C147.925 5.58699 146.529 4.33043 143.764 4.33043H140.078V11.1438H143.764C146.529 11.1438 147.925 9.85928 147.925 7.73709Z" fill="#FF6A29"/>
<path d="M114.476 20.5271C108.305 20.5271 103.781 16.2269 103.781 10.4188C103.781 4.61076 108.305 0.310547 114.476 0.310547C120.619 0.310547 125.171 4.58284 125.171 10.4188C125.171 16.2549 120.619 20.5271 114.476 20.5271ZM114.476 16.6737C117.966 16.6737 120.591 14.1327 120.591 10.4188C120.591 6.70502 117.966 4.16399 114.476 4.16399C110.986 4.16399 108.361 6.70502 108.361 10.4188C108.361 14.1327 110.986 16.6737 114.476 16.6737Z" fill="#FF6A29"/>
<path d="M95.1621 4.27458H84.9142V9.44042H93.9614V13.0705H84.9142V20.191H80.3906V0.644531H95.1621V4.27458Z" fill="#FF6A29"/>
<path d="M70.1876 20.191H65.3289L61.5592 14.7459H61.3358H57.3986V20.191H52.875V0.644531H61.3358C66.5575 0.644531 69.8245 3.35311 69.8245 7.73709C69.8245 10.6691 68.3446 12.8192 65.8036 13.9082L70.1876 20.191ZM65.2451 7.73709C65.2451 5.58699 63.8489 4.33043 61.0845 4.33043H57.3986V11.1438H61.0845C63.8489 11.1438 65.2451 9.85928 65.2451 7.73709Z" fill="#FF6A29"/>
<path d="M31.6558 16.5609H42.2947V20.191H27.1602V0.644531H41.9317V4.27458H31.6558V8.51895H40.731V12.0373H31.6558V16.5609Z" fill="#FF6A29"/>
<path d="M8.46081 0.644531C13.6825 0.644531 16.9495 3.35311 16.9495 7.73709C16.9495 12.0932 13.6825 14.8017 8.46081 14.8017H4.5236V20.191H0V0.644531H8.46081ZM8.2095 11.1158C10.9739 11.1158 12.3701 9.85928 12.3701 7.73709C12.3701 5.58699 10.9739 4.33043 8.2095 4.33043H4.5236V11.1158H8.2095Z" fill="#FF6A29"/>
</svg>
